2800 0 1 0           
9 SolidEdge 14 ACIS 31.0.1 NT 24 Sun Nov 13 22:05:49 2022 
1 9.9999999999999995e-07 1e-10 
T @77 KRWK_JXU7HZXSWMM3V64MNG_F6DMPGQ7ZDC4RDQW2BV4R8QDQBFVEE7WJ8FMNGPHUARUM6QDFB_MM 
body $-1 -1 -1 $-1 0 $1 $-1 $-1 T -259.11178582686068 -21.500000000474348 0 240.88821417313963 60 287.89148966855362 #
lump $-1 -1 -1 $-1 $-1 $2 $0 T -259.11178582686068 -21.500000000474348 0 240.88821417313963 60 287.89148966855362 #
shell $-1 -1 -1 $-1 $-1 $-1 $3 $-1 $1 T -259.11178582686068 -21.500000000474348 0 240.88821417313963 60 287.89148966855362 #
face $4 -1 -1 $-1 $5 $6 $2 $-1 $7 reversed single T 240.88821417313949 0 87.891489668554101 240.88821417313963 10 287.8914896685535 F #
render-rbase-attrib $-1 -1 $8 $-1 $3 1 1 1 1 1 1 1 1 1 1 1 1 0 1 0 1 1 1 $9 $-1 0 0 #
face $10 -1 -1 $-1 $11 $12 $2 $-1 $13 reversed single T -259.11178582686051 0 87.891489668553092 240.88821417313949 10 87.891489668554101 F #
loop $-1 -1 -1 $-1 $-1 $14 $3 T 240.88821417313949 0 87.891489668554101 240.88821417313963 10 287.8914896685535 unknown #
plane-surface $-1 -1 -1 $-1 240.88821417313949 10 287.8914896685535 -1 0 -6.9388939039072501e-16 -6.9388939039072496e-13 0 1000 forward_v I I I I #
rgb_color-st-attrib $-1 -1 $-1 $4 $3 2 1 2 1 1 1 1 1 1 1 1 1 1 1 0 1 1 1 0.60000002384185791 0.60000002384185791 0.66666668653488159 #
rh_material-rh_entity $-1 -1 4 4 @5 plain @5 color -4 1 1 1 @5 phong @14 ambient factor -2 1 @14 diffuse factor -2 0.75 @15 specular factor -2 0.5 @8 exponent -2 10 @14 specular color -4 1 1 1 @4 none @5 plain @5 color -4 0 0 0 #
render-rbase-attrib $-1 -1 $15 $-1 $5 1 1 1 1 1 1 1 1 1 1 1 1 0 1 0 1 1 1 $16 $-1 0 0 #
face $17 -1 -1 $-1 $18 $19 $2 $-1 $20 reversed single T -259.11178582686051 0 287.89148966855248 240.88821417313949 10 287.89148966855362 F #
loop $-1 -1 -1 $-1 $-1 $21 $5 T -259.11178582686051 0 87.891489668553092 240.88821417313949 10 87.891489668554101 unknown #
plane-surface $-1 -1 -1 $-1 240.88821417313949 10 87.891489668554101 -1.9984014443252802e-15 0 1 1000 0 1.9984014443252802e-12 forward_v I I I I #
coedge $-1 -1 -1 $-1 $22 $23 $24 $25 forward $6 $-1 #
rgb_color-st-attrib $-1 -1 $-1 $10 $5 2 1 2 1 1 1 1 1 1 1 1 1 1 1 0 1 1 1 0.60000002384185791 0.60000002384185791 0.66666668653488159 #
rh_material-rh_entity $-1 -1 4 4 @5 plain @5 color -4 1 1 1 @5 phong @14 ambient factor -2 1 @14 diffuse factor -2 0.75 @15 specular factor -2 0.5 @8 exponent -2 10 @14 specular color -4 1 1 1 @4 none @5 plain @5 color -4 0 0 0 #
render-rbase-attrib $-1 -1 $26 $-1 $11 1 1 1 1 1 1 1 1 1 1 1 1 0 1 0 1 1 1 $27 $-1 0 0 #
face $28 -1 -1 $-1 $29 $30 $2 $-1 $31 forward single T -21.500000000474348 -21.500000000474348 0 21.500000000474348 21.500000000474348 210 F #
loop $-1 -1 -1 $-1 $-1 $32 $11 T -259.11178582686051 0 287.89148966855248 240.88821417313949 10 287.89148966855362 unknown #
plane-surface $-1 -1 -1 $-1 -259.11178582686051 10 287.89148966855248 2.2204460492503154e-15 0 -1 -1000 0 -2.2204460492503155e-12 forward_v I I I I #
coedge $-1 -1 -1 $-1 $33 $34 $35 $36 forward $12 $-1 #
coedge $-1 -1 -1 $-1 $37 $14 $34 $38 reversed $6 $-1 #
coedge $-1 -1 -1 $-1 $14 $37 $39 $40 forward $6 $-1 #
coedge $-1 -1 -1 $-1 $41 $35 $14 $25 reversed $42 $-1 #
edge $-1 -1 -1 $-1 $43 0 $44 0.1999999999999994 $14 $45 forward @7 unknown T 240.88821417313949 0 87.891489668554101 240.88821417313963 0 287.8914896685535 #
rgb_color-st-attrib $-1 -1 $-1 $17 $11 2 1 2 1 1 1 1 1 1 1 1 1 1 1 0 1 1 1 0.60000002384185791 0.60000002384185791 0.66666668653488159 #
rh_material-rh_entity $-1 -1 4 4 @5 plain @5 color -4 1 1 1 @5 phong @14 ambient factor -2 1 @14 diffuse factor -2 0.75 @15 specular factor -2 0.5 @8 exponent -2 10 @14 specular color -4 1 1 1 @4 none @5 plain @5 color -4 0 0 0 #
render-rbase-attrib $-1 -1 $46 $-1 $18 1 1 1 1 1 1 1 1 1 1 1 1 0 1 0 1 1 1 $47 $-1 0 0 #
face $48 -1 -1 $-1 $49 $50 $2 $-1 $51 forward single T -21.500000000474348 -21.500000000474348 210 21.500000000474348 2.6329906182248998e-15 210 F #
loop $-1 -1 -1 $-1 $52 $53 $18 T -21.500000000474348 -21.500000000474348 0 21.500000000474348 21.500000000474348 0 unknown #
cone-surface $-1 -1 -1 $-1 0 0 210 -0 -0 1 -21.500000000474348 0 0 1 I I -0 1 21.500000000474348 forward I I I I #
coedge $-1 -1 -1 $-1 $39 $54 $41 $55 forward $19 $-1 #
coedge $-1 -1 -1 $-1 $56 $21 $57 $58 forward $12 $-1 #
coedge $-1 -1 -1 $-1 $21 $59 $22 $38 forward $12 $-1 #
coedge $-1 -1 -1 $-1 $24 $60 $21 $36 reversed $42 $-1 #
edge $-1 -1 -1 $-1 $44 0 $61 0.21938821417266513 $21 $62 forward @7 unknown T 21.500000000474348 0 87.891489668553589 240.88821417313949 0 87.891489668554101 #
coedge $-1 -1 -1 $-1 $23 $22 $63 $64 reversed $6 $-1 #
edge $-1 -1 -1 $-1 $65 0 $44 0.01 $34 $66 forward @7 unknown T 240.88821417313949 0 87.891489668554101 240.88821417313949 10 87.891489668554101 #
coedge $-1 -1 -1 $-1 $67 $32 $23 $40 reversed $19 $-1 #
edge $-1 -1 -1 $-1 $68 0 $43 0.01 $23 $69 forward @7 unknown T 240.88821417313949 0 287.8914896685535 240.88821417313949 10 287.8914896685535 #
coedge $-1 -1 -1 $-1 $70 $24 $32 $55 reversed $42 $-1 #
loop $-1 -1 -1 $-1 $-1 $71 $72 T -259.11178582686068 0 87.891489668553092 240.88821417313963 0 287.89148966855362 unknown #
vertex $-1 -1 -1 $-1 $55 $73 #
vertex $-1 -1 -1 $-1 $25 $74 #
straight-curve $-1 -1 -1 $-1 240.88821417313949 0 287.8914896685535 6.9388939039072496e-13 0 -1000 F 0 F 0.1999999999999994 #
rgb_color-st-attrib $-1 -1 $-1 $28 $18 2 1 2 1 1 1 1 1 1 1 1 1 1 1 0 1 1 1 0.60000002384185791 0.60000002384185791 0.66666668653488159 #
rh_material-rh_entity $-1 -1 4 4 @5 plain @5 color -4 1 1 1 @5 phong @14 ambient factor -2 1 @14 diffuse factor -2 0.75 @15 specular factor -2 0.5 @8 exponent -2 10 @14 specular color -4 1 1 1 @4 none @5 plain @5 color -4 0 0 0 #
render-rbase-attrib $-1 -1 $75 $-1 $29 1 1 1 1 1 1 1 1 1 1 1 1 0 1 0 1 1 1 $76 $-1 0 0 #
face $77 -1 -1 $-1 $78 $79 $2 $-1 $80 reversed single T -21.500000000474348 -21.500000000474348 0 21.500000000474348 21.500000000474348 0 F #
loop $-1 -1 -1 $-1 $-1 $81 $29 T -21.500000000474348 -21.500000000474348 210 21.500000000474348 2.6329906182248998e-15 210 unknown #
plane-surface $-1 -1 -1 $-1 0 0 210 0 0 1 1000 0 0 forward_v I I I I #
loop $-1 -1 -1 $-1 $-1 $82 $18 T -21.500000000474348 -21.500000000474348 70 21.500000000474348 21.500000000474348 210 unknown #
coedge $-1 -1 -1 $-1 $53 $53 $83 $84 forward $30 $-1 #
coedge $-1 -1 -1 $-1 $32 $67 $85 $86 forward $19 $-1 #
edge $-1 -1 -1 $-1 $87 0 $43 0.5 $32 $88 forward @7 unknown T -259.11178582686051 0 287.89148966855248 240.88821417313949 0 287.89148966855362 #
coedge $-1 -1 -1 $-1 $89 $33 $90 $91 forward $12 $-1 #
coedge $-1 -1 -1 $-1 $92 $93 $33 $58 reversed $94 $-1 #
edge $-1 -1 -1 $-1 $61 0.21938821417266513 $95 0.26238821417361385 $33 $96 forward @7 unknown T -21.500000000474358 0 87.891489668553575 21.500000000474358 0 87.89148966855366 #
coedge $-1 -1 -1 $-1 $34 $89 $97 $98 reversed $12 $-1 #
coedge $-1 -1 -1 $-1 $35 $71 $82 $99 forward $42 $-1 #
vertex $-1 -1 -1 $-1 $99 $100 #
straight-curve $-1 -1 -1 $-1 240.88821417313949 0 87.891489668554101 -1000 0 -1.9984014443252802e-12 F 0 F 0.21938821417266513 #
coedge $-1 -1 -1 $-1 $97 $101 $37 $64 forward $102 $-1 #
edge $-1 -1 -1 $-1 $68 0 $65 0.1999999999999994 $63 $103 forward @7 unknown T 240.88821417313949 10 87.891489668554101 240.88821417313963 10 287.8914896685535 #
vertex $-1 -1 -1 $-1 $64 $104 #
straight-curve $-1 -1 -1 $-1 240.88821417313949 10 87.891489668554101 0 -1000 0 F 0 F 0.01 #
coedge $-1 -1 -1 $-1 $54 $39 $101 $105 reversed $19 $-1 #
vertex $-1 -1 -1 $-1 $105 $106 #
straight-curve $-1 -1 -1 $-1 240.88821417313949 10 287.8914896685535 0 -1000 0 F 0 F 0.01 #
coedge $-1 -1 -1 $-1 $90 $41 $107 $108 reversed $42 $-1 #
coedge $-1 -1 -1 $-1 $60 $109 $110 $111 reversed $42 $-1 #
face $112 -1 -1 $-1 $113 $42 $2 $-1 $114 reversed single T -259.11178582686068 0 87.891489668553092 240.88821417313963 0 287.89148966855362 F #
point $-1 -1 -1 $-1 240.88821417313949 0 287.8914896685535 #
point $-1 -1 -1 $-1 240.88821417313949 0 87.891489668554101 #
rgb_color-st-attrib $-1 -1 $-1 $48 $29 2 1 2 1 1 1 1 1 1 1 1 1 1 1 0 1 1 1 0.60000002384185791 0.60000002384185791 0.66666668653488159 #
rh_material-rh_entity $-1 -1 4 4 @5 plain @5 color -4 1 1 1 @5 phong @14 ambient factor -2 1 @14 diffuse factor -2 0.75 @15 specular factor -2 0.5 @8 exponent -2 10 @14 specular color -4 1 1 1 @4 none @5 plain @5 color -4 0 0 0 #
render-rbase-attrib $-1 -1 $115 $-1 $49 1 1 1 1 1 1 1 1 1 1 1 1 0 1 0 1 1 1 $116 $-1 0 0 #
face $117 -1 -1 $-1 $118 $119 $2 $-1 $120 forward single T -21.500000000474348 0 70 21.500000000474351 21.500000000474348 70 F #
loop $-1 -1 -1 $-1 $-1 $83 $49 T -21.500000000474348 -21.500000000474348 0 21.500000000474348 21.500000000474348 0 unknown #
plane-surface $-1 -1 -1 $-1 0 0 0 0 0 1 1000 0 0 forward_v I I I I #
coedge $-1 -1 -1 $-1 $110 $110 $121 $122 forward $50 $-1 #
coedge $-1 -1 -1 $-1 $121 $123 $60 $99 reversed $52 $-1 #
coedge $-1 -1 -1 $-1 $83 $83 $53 $84 reversed $79 $-1 #
edge $-1 -1 -1 $-1 $124 0 $124 6.2831853071795862 $53 $125 forward @7 unknown T -21.500000000474348 -21.500000000474348 0 21.500000000474348 21.500000000474348 0 #
coedge $-1 -1 -1 $-1 $126 $107 $54 $86 reversed $127 $-1 #
edge $-1 -1 -1 $-1 $128 0 $87 0.01 $54 $129 forward @7 unknown T -259.11178582686051 0 287.89148966855248 -259.11178582686051 10 287.89148966855248 #
vertex $-1 -1 -1 $-1 $55 $130 #
straight-curve $-1 -1 -1 $-1 -259.11178582686051 0 287.89148966855248 1000 0 2.2204460492503155e-12 F 0 F 0.5 #
coedge $-1 -1 -1 $-1 $59 $56 $131 $132 reversed $12 $-1 #
coedge $-1 -1 -1 $-1 $109 $70 $56 $91 reversed $42 $-1 #
edge $-1 -1 -1 $-1 $95 0.26238821417361385 $133 0.5 $56 $134 forward @7 unknown T -259.11178582686051 0 87.891489668553092 -21.500000000474348 0 87.891489668553589 #
coedge $-1 -1 -1 $-1 $135 $57 $123 $136 forward $94 $-1 #
coedge $-1 -1 -1 $-1 $57 $135 $137 $138 forward $94 $-1 #
loop $-1 -1 -1 $-1 $-1 $57 $118 T -21.500000000474358 0 70 21.500000000474358 0 87.89148966855366 unknown #
vertex $-1 -1 -1 $-1 $91 $139 #
straight-curve $-1 -1 -1 $-1 240.88821417313949 0 87.891489668554101 -1000 0 -1.9984014443252802e-12 F 0.21938821417266513 F 0.26238821417361385 #
coedge $-1 -1 -1 $-1 $140 $63 $59 $98 forward $102 $-1 #
edge $-1 -1 -1 $-1 $65 0 $141 0.5 $97 $142 forward @7 unknown T -259.11178582686051 10 87.891489668553092 240.88821417313949 10 87.891489668554101 #
edge $-1 -1 -1 $-1 $143 0 $61 0.1221085103314464 $60 $144 forward @7 unknown T 21.500000000474348 0 87.891489668553589 21.500000000474348 0 210 #
point $-1 -1 -1 $-1 21.500000000474348 0 87.891489668553589 #
coedge $-1 -1 -1 $-1 $63 $140 $67 $105 forward $102 $-1 #
loop $-1 -1 -1 $-1 $-1 $140 $113 T -259.11178582686068 10 87.891489668553092 240.88821417313963 10 287.89148966855362 unknown #
straight-curve $-1 -1 -1 $-1 240.88821417313949 10 287.8914896685535 6.9388939039072496e-13 0 -1000 F 0 F 0.1999999999999994 #
point $-1 -1 -1 $-1 240.88821417313949 10 87.891489668554101 #
edge $-1 -1 -1 $-1 $128 0 $68 0.5 $101 $145 forward @7 unknown T -259.11178582686051 10 287.89148966855248 240.88821417313949 10 287.89148966855362 #
point $-1 -1 -1 $-1 240.88821417313949 10 287.8914896685535 #
coedge $-1 -1 -1 $-1 $85 $131 $70 $108 forward $127 $-1 #
edge $-1 -1 -1 $-1 $133 0 $87 0.1999999999999994 $107 $146 forward @7 unknown T -259.11178582686068 0 87.891489668553092 -259.11178582686051 0 287.89148966855248 #
coedge $-1 -1 -1 $-1 $71 $90 $147 $148 forward $42 $-1 #
coedge $-1 -1 -1 $-1 $81 $81 $71 $111 forward $50 $-1 #
edge $-1 -1 -1 $-1 $143 -0.021500000000474348 $149 0.021500000000474348 $110 $150 forward @7 unknown T -21.500000000474348 0 210 21.500000000474348 0 210 #
render-rbase-attrib $-1 -1 $151 $-1 $72 1 1 1 1 1 1 1 1 1 1 1 1 0 1 0 1 1 1 $152 $-1 0 0 #
face $153 -1 -1 $-1 $154 $155 $2 $-1 $156 forward single T -259.11178582686068 10 87.891489668553092 240.88821417313963 10 287.89148966855362 F #
plane-surface $-1 -1 -1 $-1 0 0 0 0 1 0 0 0 1000 forward_v I I I I #
rgb_color-st-attrib $-1 -1 $-1 $77 $49 2 1 2 1 1 1 1 1 1 1 1 1 1 1 0 1 1 1 0.60000002384185791 0.60000002384185791 0.66666668653488159 #
rh_material-rh_entity $-1 -1 4 4 @5 plain @5 color -4 1 1 1 @5 phong @14 ambient factor -2 1 @14 diffuse factor -2 0.75 @15 specular factor -2 0.5 @8 exponent -2 10 @14 specular color -4 1 1 1 @4 none @5 plain @5 color -4 0 0 0 #
render-rbase-attrib $-1 -1 $157 $-1 $78 1 1 1 1 1 1 1 1 1 1 1 1 0 1 0 1 1 1 $158 $-1 0 0 #
face $159 -1 -1 $-1 $160 $94 $2 $-1 $161 forward single T -21.500000000474358 0 70 21.500000000474358 0 87.89148966855366 F #
loop $-1 -1 -1 $-1 $-1 $162 $78 T -21.500000000474348 0 70 21.500000000474351 21.500000000474348 70 unknown #
plane-surface $-1 -1 -1 $-1 0 0 70 0 0 1 1000 0 0 forward_v I I I I #
coedge $-1 -1 -1 $-1 $147 $82 $81 $122 reversed $52 $-1 #
edge $-1 -1 -1 $-1 $149 3.1415926535897931 $143 6.2831853071795862 $81 $163 forward @7 unknown T -21.500000000474348 -21.500000000474348 210 21.500000000474348 2.6329906182248998e-15 210 #
coedge $-1 -1 -1 $-1 $82 $164 $92 $136 reversed $52 $-1 #
vertex $-1 -1 -1 $-1 $84 $165 #
ellipse-curve $-1 -1 -1 $-1 0 0 0 0 0 1 21.500000000474348 0 0 1 I I #
coedge $-1 -1 -1 $-1 $131 $85 $140 $166 reversed $127 $-1 #
loop $-1 -1 -1 $-1 $-1 $107 $160 T -259.11178582686068 0 87.891489668553092 -259.11178582686051 10 287.89148966855248 unknown #
vertex $-1 -1 -1 $-1 $105 $167 #
straight-curve $-1 -1 -1 $-1 -259.11178582686051 10 287.89148966855248 0 -1000 0 F 0 F 0.01 #
point $-1 -1 -1 $-1 -259.11178582686051 0 287.89148966855248 #
coedge $-1 -1 -1 $-1 $107 $126 $89 $132 forward $127 $-1 #
edge $-1 -1 -1 $-1 $141 0 $133 0.01 $131 $168 forward @7 unknown T -259.11178582686051 0 87.891489668553092 -259.11178582686051 10 87.891489668553092 #
vertex $-1 -1 -1 $-1 $91 $169 #
straight-curve $-1 -1 -1 $-1 240.88821417313949 0 87.891489668554101 -1000 0 -1.9984014443252802e-12 F 0.26238821417361385 F 0.5 #
coedge $-1 -1 -1 $-1 $93 $92 $170 $171 forward $94 $-1 #
edge $-1 -1 -1 $-1 $61 0.1221085103314464 $172 0.13999999999999999 $92 $173 forward @7 unknown T 21.500000000474348 0 70 21.500000000474348 0 87.891489668553604 #
coedge $-1 -1 -1 $-1 $164 $147 $93 $138 reversed $52 $-1 #
edge $-1 -1 -1 $-1 $174 -0.13999999999999999 $95 -0.1221085103314464 $93 $175 reversed @7 unknown T -21.500000000474348 0 70 -21.500000000474348 0 87.891489668553604 #
point $-1 -1 -1 $-1 -21.500000000474348 0 87.891489668553589 #
coedge $-1 -1 -1 $-1 $101 $97 $126 $166 forward $102 $-1 #
vertex $-1 -1 -1 $-1 $98 $176 #
straight-curve $-1 -1 -1 $-1 240.88821417313949 10 87.891489668554101 -1000 0 -1.9984014443252802e-12 F 0 F 0.5 #
vertex $-1 -1 -1 $-1 $111 $177 #
straight-curve $-1 -1 -1 $-1 21.500000000474348 0 210 0 0 -1000 F 0 F 0.1221085103314464 #
straight-curve $-1 -1 -1 $-1 -259.11178582686051 10 287.89148966855248 1000 0 2.2204460492503155e-12 F 0 F 0.5 #
straight-curve $-1 -1 -1 $-1 -259.11178582686051 0 87.891489668553092 -8.3266726846887003e-13 0 1000 F 0 F 0.1999999999999994 #
coedge $-1 -1 -1 $-1 $137 $121 $109 $148 reversed $52 $-1 #
edge $-1 -1 -1 $-1 $95 -0.1221085103314464 $149 -0 $109 $178 reversed @7 unknown T -21.500000000474348 0 87.891489668553589 -21.500000000474348 0 210 #
vertex $-1 -1 -1 $-1 $148 $179 #
straight-curve $-1 -1 -1 $-1 0 0 210 -1000 0 0 F -0.021500000000474348 F 0.021500000000474348 #
rgb_color-st-attrib $-1 -1 $-1 $112 $72 2 1 2 1 1 1 1 1 1 1 1 1 1 1 0 1 1 1 0.60000002384185791 0.60000002384185791 0.66666668653488159 #
rh_material-rh_entity $-1 -1 4 4 @5 plain @5 color -4 1 1 1 @5 phong @14 ambient factor -2 1 @14 diffuse factor -2 0.75 @15 specular factor -2 0.5 @8 exponent -2 10 @14 specular color -4 1 1 1 @4 none @5 plain @5 color -4 0 0 0 #
render-rbase-attrib $-1 -1 $180 $-1 $113 1 1 1 1 1 1 1 1 1 1 1 1 0 1 0 1 1 1 $181 $-1 0 0 #
face $182 -1 -1 $-1 $183 $184 $2 $-1 $185 reversed single T -203.86706840833648 10 251.34640469667852 -194.35650324538489 60 254.43657464042826 F #
loop $-1 -1 -1 $-1 $102 $186 $113 T -236.1845773720656 10 134.20581921897616 191.93747567400351 10 257.89148966855367 unknown #
plane-surface $-1 -1 -1 $-1 0 10 0 0 1 0 0 0 1000 forward_v I I I I #
rgb_color-st-attrib $-1 -1 $-1 $117 $78 2 1 2 1 1 1 1 1 1 1 1 1 1 1 0 1 1 1 0.60000002384185791 0.60000002384185791 0.66666668653488159 #
rh_material-rh_entity $-1 -1 4 4 @5 plain @5 color -4 1 1 1 @5 phong @14 ambient factor -2 1 @14 diffuse factor -2 0.75 @15 specular factor -2 0.5 @8 exponent -2 10 @14 specular color -4 1 1 1 @4 none @5 plain @5 color -4 0 0 0 #
render-rbase-attrib $-1 -1 $187 $-1 $118 1 1 1 1 1 1 1 1 1 1 1 1 0 1 0 1 1 1 $188 $-1 0 0 #
face $189 -1 -1 $-1 $72 $127 $2 $-1 $190 reversed single T -259.11178582686068 0 87.891489668553092 -259.11178582686051 10 287.89148966855248 F #
plane-surface $-1 -1 -1 $-1 -38.4593193806977 0 420 0 1 0 0 0 1000 forward_v I I I I #
coedge $-1 -1 -1 $-1 $170 $170 $164 $191 forward $119 $-1 #
ellipse-curve $-1 -1 -1 $-1 0 0 210 0 0 1 21.500000000474348 0 0 1 F 3.1415926535897931 F 6.2831853071795862 #
coedge $-1 -1 -1 $-1 $123 $137 $162 $191 reversed $52 $-1 #
point $-1 -1 -1 $-1 21.500000000474348 0 0 #
edge $-1 -1 -1 $-1 $141 0 $128 0.1999999999999994 $140 $192 forward @7 unknown T -259.11178582686068 10 87.891489668553092 -259.11178582686051 10 287.89148966855248 #
point $-1 -1 -1 $-1 -259.11178582686051 10 287.89148966855248 #
straight-curve $-1 -1 -1 $-1 -259.11178582686051 10 87.891489668553092 0 -1000 0 F 0 F 0.01 #
point $-1 -1 -1 $-1 -259.11178582686051 0 87.891489668553092 #
coedge $-1 -1 -1 $-1 $162 $162 $135 $171 reversed $119 $-1 #
edge $-1 -1 -1 $-1 $172 -0.059959319381172049 $174 -0.016959319380223353 $135 $193 reversed @7 unknown T -21.500000000474348 0 70 21.500000000474351 0 70 #
vertex $-1 -1 -1 $-1 $136 $194 #
straight-curve $-1 -1 -1 $-1 21.500000000474348 0 210 0 0 -1000 F 0.1221085103314464 F 0.13999999999999999 #
vertex $-1 -1 -1 $-1 $191 $195 #
straight-curve $-1 -1 -1 $-1 -21.500000000474348 0 210 0 0 -1000 F 0.1221085103314464 F 0.13999999999999999 #
point $-1 -1 -1 $-1 -259.11178582686051 10 87.891489668553092 #
point $-1 -1 -1 $-1 21.500000000474348 0 210 #
straight-curve $-1 -1 -1 $-1 -21.500000000474348 0 210 0 0 -1000 F 0 F 0.1221085103314464 #
point $-1 -1 -1 $-1 -21.500000000474348 0 210 #
rgb_color-st-attrib $-1 -1 $-1 $153 $113 2 1 2 1 1 1 1 1 1 1 1 1 1 1 0 1 1 1 0.60000002384185791 0.60000002384185791 0.66666668653488159 #
rh_material-rh_entity $-1 -1 4 4 @5 plain @5 color -4 1 1 1 @5 phong @14 ambient factor -2 1 @14 diffuse factor -2 0.75 @15 specular factor -2 0.5 @8 exponent -2 10 @14 specular color -4 1 1 1 @4 none @5 plain @5 color -4 0 0 0 #
render-rbase-attrib $-1 -1 $196 $-1 $154 1 1 1 1 1 1 1 1 1 1 1 1 0 1 0 1 1 1 $197 $-1 0 0 #
face $198 -1 -1 $-1 $199 $200 $2 $-1 $201 forward single T 182.73242713947892 10 250.93783402610754 191.93747567400351 60 254.84514531100049 F #
loop $-1 -1 -1 $-1 $-1 $202 $154 T -203.86706840833648 10 251.34640469667852 -194.35650324538489 60 254.43657464042826 unknown #
plane-surface $-1 -1 -1 $-1 -199.11178582686051 10 252.8914896685535 -0.30901699437494395 0 -0.95105651629515464 0 1000 0 forward_v I I I I #
coedge $-1 -1 -1 $-1 $203 $204 $205 $206 reversed $155 $-1 #
rgb_color-st-attrib $-1 -1 $-1 $159 $118 2 1 2 1 1 1 1 1 1 1 1 1 1 1 0 1 1 1 0.60000002384185791 0.60000002384185791 0.66666668653488159 #
rh_material-rh_entity $-1 -1 4 4 @5 plain @5 color -4 1 1 1 @5 phong @14 ambient factor -2 1 @14 diffuse factor -2 0.75 @15 specular factor -2 0.5 @8 exponent -2 10 @14 specular color -4 1 1 1 @4 none @5 plain @5 color -4 0 0 0 #
render-rbase-attrib $-1 -1 $207 $-1 $160 1 1 1 1 1 1 1 1 1 1 1 1 0 1 0 1 1 1 $208 $-1 0 0 #
plane-surface $-1 -1 -1 $-1 -259.11178582686051 10 87.891489668553092 1 0 8.3266726846887007e-16 8.3266726846887003e-13 0 -1000 forward_v I I I I #
edge $-1 -1 -1 $-1 $172 0 $174 3.1415926535897931 $162 $209 forward @7 unknown T -21.500000000474348 0 70 21.500000000474348 21.500000000474348 70 #
straight-curve $-1 -1 -1 $-1 -259.11178582686051 10 87.891489668553092 -8.3266726846887003e-13 0 1000 F 0 F 0.1999999999999994 #
straight-curve $-1 -1 -1 $-1 -38.4593193806977 0 70 1000 0 0 F 0.016959319380223353 F 0.059959319381172049 #
point $-1 -1 -1 $-1 21.500000000474348 0 70 #
point $-1 -1 -1 $-1 -21.500000000474348 0 70 #
rgb_color-st-attrib $-1 -1 $-1 $182 $154 2 1 2 1 1 1 1 1 1 1 1 1 1 1 0 1 1 1 0.60000002384185791 0.60000002384185791 0.66666668653488159 #
rh_material-rh_entity $-1 -1 4 4 @5 plain @5 color -4 1 1 1 @5 phong @14 ambient factor -2 1 @14 diffuse factor -2 0.75 @15 specular factor -2 0.5 @8 exponent -2 10 @14 specular color -4 1 1 1 @4 none @5 plain @5 color -4 0 0 0 #
render-rbase-attrib $-1 -1 $210 $-1 $183 1 1 1 1 1 1 1 1 1 1 1 1 0 1 0 1 1 1 $211 $-1 0 0 #
face $212 -1 -1 $-1 $213 $214 $2 $-1 $215 reversed single T -236.1845773720656 60 134.20581921897616 191.93747567400351 60 257.89148966855367 F #
loop $-1 -1 -1 $-1 $-1 $216 $183 T 182.73242713947892 10 250.93783402610754 191.93747567400351 60 254.84514531100049 unknown #
plane-surface $-1 -1 -1 $-1 187.334951406741 10 252.89148966855402 0.39073112848926833 -0 0.9205048534524426 0 1000 0 forward_v I I I I #
coedge $-1 -1 -1 $-1 $217 $218 $219 $220 reversed $184 $-1 #
coedge $-1 -1 -1 $-1 $221 $186 $222 $223 reversed $155 $-1 #
coedge $-1 -1 -1 $-1 $186 $224 $216 $225 forward $155 $-1 #
coedge $-1 -1 -1 $-1 $226 $227 $186 $206 forward $228 $-1 #
edge $-1 -1 -1 $-1 $229 0.003309427805978358 $230 0.12242037832704911 $205 $231 forward @7 unknown T 136.1920710269516 10 145.20293725702115 182.73242713947906 10 254.84514531100052 #
rgb_color-st-attrib $-1 -1 $-1 $189 $160 2 1 2 1 1 1 1 1 1 1 1 1 1 1 0 1 1 1 0.60000002384185791 0.60000002384185791 0.66666668653488159 #
rh_material-rh_entity $-1 -1 4 4 @5 plain @5 color -4 1 1 1 @5 phong @14 ambient factor -2 1 @14 diffuse factor -2 0.75 @15 specular factor -2 0.5 @8 exponent -2 10 @14 specular color -4 1 1 1 @4 none @5 plain @5 color -4 0 0 0 #
ellipse-curve $-1 -1 -1 $-1 0 0 70 0 0 1 21.500000000474348 0 0 1 F 0 F 3.1415926535897931 #
rgb_color-st-attrib $-1 -1 $-1 $198 $183 2 1 2 1 1 1 1 1 1 1 1 1 1 1 0 1 1 1 0.60000002384185791 0.60000002384185791 0.66666668653488159 #
rh_material-rh_entity $-1 -1 4 4 @5 plain @5 color -4 1 1 1 @5 phong @14 ambient factor -2 1 @14 diffuse factor -2 0.75 @15 specular factor -2 0.5 @8 exponent -2 10 @14 specular color -4 1 1 1 @4 none @5 plain @5 color -4 0 0 0 #
render-rbase-attrib $-1 -1 $232 $-1 $199 1 1 1 1 1 1 1 1 1 1 1 1 0 1 0 1 1 1 $233 $-1 0 0 #
face $234 -1 -1 $-1 $235 $236 $2 $-1 $237 reversed single T 142.81092663890846 10 135.2029372570212 191.93747567400348 60 250.93783402610774 F #
loop $-1 -1 -1 $-1 $-1 $238 $199 T -236.1845773720656 60 134.20581921897616 191.93747567400351 60 257.89148966855367 unknown #
plane-surface $-1 -1 -1 $-1 -199.11178582686051 60 252.8914896685535 0 -1 -0 -309.01699437494398 0 -951.05651629515478 forward_v I I I I #
coedge $-1 -1 -1 $-1 $239 $240 $204 $225 reversed $200 $-1 #
coedge $-1 -1 -1 $-1 $241 $202 $242 $243 forward $184 $-1 #
coedge $-1 -1 -1 $-1 $202 $241 $244 $245 reversed $184 $-1 #
coedge $-1 -1 -1 $-1 $246 $247 $202 $220 forward $248 $-1 #
edge $-1 -1 -1 $-1 $249 0 $250 0.049999999999999996 $219 $251 forward @7 unknown T -203.86706840833648 10 254.43657464042801 -203.86706840833648 60 254.43657464042801 #
coedge $-1 -1 -1 $-1 $252 $203 $253 $254 reversed $155 $-1 #
coedge $-1 -1 -1 $-1 $255 $256 $203 $223 forward $257 $-1 #
edge $-1 -1 -1 $-1 $258 0.0036167792922264519 $229 0.091560377995706058 $222 $259 forward @7 unknown T 48.248472323472001 10 145.20293725702101 136.19207102695162 10 145.2029372570212 #
coedge $-1 -1 -1 $-1 $204 $260 $261 $262 forward $155 $-1 #
edge $-1 -1 -1 $-1 $263 -0.0050000000000003089 $230 0.0049999999999998492 $204 $264 forward @7 unknown T 182.73242713947892 10 250.93783402610754 191.93747567400351 10 254.84514531100049 #
coedge $-1 -1 -1 $-1 $265 $205 $240 $266 forward $228 $-1 #
coedge $-1 -1 -1 $-1 $205 $265 $255 $267 reversed $228 $-1 #
loop $-1 -1 -1 $-1 $-1 $265 $268 T 136.1920710269516 10 145.20293725702115 182.73242713947906 60 254.84514531100052 unknown #
vertex $-1 -1 -1 $-1 $223 $269 #
vertex $-1 -1 -1 $-1 $266 $270 #
straight-curve $-1 -1 -1 $-1 134.898974565668 10 142.1565928994676 390.73112848926837 0 920.50485345244272 F 0.003309427805978358 F 0.12242037832704911 #
rgb_color-st-attrib $-1 -1 $-1 $212 $199 2 1 2 1 1 1 1 1 1 1 1 1 1 1 0 1 1 1 0.60000002384185791 0.60000002384185791 0.66666668653488159 #
rh_material-rh_entity $-1 -1 4 4 @5 plain @5 color -4 1 1 1 @5 phong @14 ambient factor -2 1 @14 diffuse factor -2 0.75 @15 specular factor -2 0.5 @8 exponent -2 10 @14 specular color -4 1 1 1 @4 none @5 plain @5 color -4 0 0 0 #
render-rbase-attrib $-1 -1 $271 $-1 $213 1 1 1 1 1 1 1 1 1 1 1 1 0 1 0 1 1 1 $272 $-1 0 0 #
face $273 -1 -1 $-1 $274 $275 $2 $-1 $276 reversed single T 41.0149137390191 10 135.20293725702101 142.8109266389086 60 135.2029372570212 F #
loop $-1 -1 -1 $-1 $-1 $277 $213 T 142.81092663890846 10 135.2029372570212 191.93747567400348 60 250.93783402610774 unknown #
plane-surface $-1 -1 -1 $-1 144.10402310019222 10 138.24928161457501 -0.9205048534524426 0 0.39073112848926833 390.73112848926837 0 920.50485345244272 forward_v I I I I #
coedge $-1 -1 -1 $-1 $278 $244 $279 $280 forward $214 $-1 #
coedge $-1 -1 -1 $-1 $281 $216 $282 $283 forward $200 $-1 #
coedge $-1 -1 -1 $-1 $216 $281 $226 $266 reversed $200 $-1 #
coedge $-1 -1 -1 $-1 $218 $217 $284 $285 forward $184 $-1 #
coedge $-1 -1 -1 $-1 $286 $287 $217 $243 reversed $155 $-1 #
edge $-1 -1 -1 $-1 $249 -0.0050000000000001276 $288 0.0049999999999998336 $217 $289 forward @7 unknown T -203.86706840833648 10 251.34640469667852 -194.35650324538489 10 254.43657464042826 #
coedge $-1 -1 -1 $-1 $238 $290 $218 $245 forward $214 $-1 #
edge $-1 -1 -1 $-1 $250 -0.0050000000000001276 $291 0.0049999999999998336 $244 $292 forward @7 unknown T -203.86706840833648 60 251.34640469667852 -194.35650324538489 60 254.43657464042826 #
coedge $-1 -1 -1 $-1 $293 $219 $290 $294 forward $248 $-1 #
coedge $-1 -1 -1 $-1 $219 $293 $286 $295 reversed $248 $-1 #
loop $-1 -1 -1 $-1 $-1 $246 $296 T -236.1845773720656 10 154.97350934024399 -203.86706840833648 60 254.43657464042801 unknown #
vertex $-1 -1 -1 $-1 $220 $297 #
vertex $-1 -1 -1 $-1 $245 $298 #
straight-curve $-1 -1 -1 $-1 -203.86706840833648 10 254.43657464042801 0 1000 0 F 0 F 0.049999999999999996 #
coedge $-1 -1 -1 $-1 $299 $221 $300 $301 reversed $155 $-1 #
coedge $-1 -1 -1 $-1 $302 $303 $221 $254 forward $304 $-1 #
edge $-1 -1 -1 $-1 $305 -0.00361677929222636 $258 0.11503307007830522 $253 $306 forward @7 unknown T 11.112547519542298 10 145.20293725702095 48.248472323472058 10 257.89148966855345 #
coedge $-1 -1 -1 $-1 $307 $222 $227 $267 forward $257 $-1 #
coedge $-1 -1 -1 $-1 $222 $307 $302 $308 reversed $257 $-1 #
loop $-1 -1 -1 $-1 $-1 $307 $309 T 48.248472323472001 10 145.20293725702101 136.19207102695162 60 145.2029372570212 unknown #
vertex $-1 -1 -1 $-1 $254 $310 #
straight-curve $-1 -1 -1 $-1 44.631693031245547 10 145.20293725702101 1000 0 2.0479543271706851e-12 F 0.0036167792922264519 F 0.091560377995706058 #
coedge $-1 -1 -1 $-1 $224 $311 $312 $313 forward $155 $-1 #
coedge $-1 -1 -1 $-1 $314 $282 $224 $262 reversed $236 $-1 #
edge $-1 -1 -1 $-1 $315 -0.0033094278059785627 $263 0.12242037832704887 $224 $316 forward @7 unknown T 142.81092663890846 10 135.2029372570212 191.93747567400348 10 250.93783402610774 #
vertex $-1 -1 -1 $-1 $225 $317 #
straight-curve $-1 -1 -1 $-1 187.334951406741 10 252.89148966855402 -920.50485345244272 0 390.73112848926837 F -0.0050000000000003089 F 0.0049999999999998492 #
coedge $-1 -1 -1 $-1 $227 $226 $318 $319 reversed $228 $-1 #
edge $-1 -1 -1 $-1 $230 0 $320 0.049999999999999996 $226 $321 forward @7 unknown T 182.732427139479 10 254.84514531100049 182.732427139479 60 254.84514531100049 #
edge $-1 -1 -1 $-1 $229 0 $322 0.049999999999999996 $255 $323 forward @7 unknown T 136.1920710269516 10 145.20293725702118 136.1920710269516 60 145.20293725702118 #
face $324 -1 -1 $-1 $309 $228 $2 $-1 $325 forward single T 136.1920710269516 10 145.20293725702115 182.73242713947906 60 254.84514531100052 F #
point $-1 -1 -1 $-1 136.1920710269516 10 145.20293725702118 #
point $-1 -1 -1 $-1 182.732427139479 10 254.84514531100049 #
rgb_color-st-attrib $-1 -1 $-1 $234 $213 2 1 2 1 1 1 1 1 1 1 1 1 1 1 0 1 1 1 0.60000002384185791 0.60000002384185791 0.66666668653488159 #
rh_material-rh_entity $-1 -1 4 4 @5 plain @5 color -4 1 1 1 @5 phong @14 ambient factor -2 1 @14 diffuse factor -2 0.75 @15 specular factor -2 0.5 @8 exponent -2 10 @14 specular color -4 1 1 1 @4 none @5 plain @5 color -4 0 0 0 #
render-rbase-attrib $-1 -1 $326 $-1 $235 1 1 1 1 1 1 1 1 1 1 1 1 0 1 0 1 1 1 $327 $-1 0 0 #
face $328 -1 -1 $-1 $329 $330 $2 $-1 $331 reversed single T 3.8789889350893101 10 135.20293725702098 41.014913739019185 60 247.89148966855353 F #
loop $-1 -1 -1 $-1 $-1 $332 $235 T 41.0149137390191 10 135.20293725702101 142.8109266389086 60 135.2029372570212 unknown #
plane-surface $-1 -1 -1 $-1 44.631693031245547 10 135.20293725702101 -2.047954327170685e-15 0 1 1000 0 2.0479543271706851e-12 forward_v I I I I #
coedge $-1 -1 -1 $-1 $282 $314 $333 $334 forward $236 $-1 #
coedge $-1 -1 -1 $-1 $335 $238 $336 $337 forward $214 $-1 #
coedge $-1 -1 -1 $-1 $284 $338 $238 $280 reversed $339 $-1 #
edge $-1 -1 -1 $-1 $291 0 $340 0.095418344129912708 $238 $341 forward @7 unknown T -223.8423931566447 60 160.59816673783149 -194.356503245385 60 251.34640469667852 #
coedge $-1 -1 -1 $-1 $240 $239 $342 $343 forward $200 $-1 #
coedge $-1 -1 -1 $-1 $261 $277 $239 $283 reversed $236 $-1 #
edge $-1 -1 -1 $-1 $263 0 $344 0.049999999999999996 $239 $345 forward @7 unknown T 191.93747567400348 10 250.93783402610754 191.93747567400348 60 250.93783402610754 #
coedge $-1 -1 -1 $-1 $346 $279 $241 $285 reversed $339 $-1 #
edge $-1 -1 -1 $-1 $288 0 $291 0.049999999999999996 $241 $347 forward @7 unknown T -194.356503245385 10 251.34640469667852 -194.356503245385 60 251.34640469667852 #
coedge $-1 -1 -1 $-1 $348 $242 $247 $295 forward $155 $-1 #
coedge $-1 -1 -1 $-1 $242 $349 $346 $350 reversed $155 $-1 #
vertex $-1 -1 -1 $-1 $243 $351 #
straight-curve $-1 -1 -1 $-1 -199.11178582686051 10 252.8914896685535 951.05651629515478 0 -309.01699437494398 F -0.0050000000000001276 F 0.0049999999999998336 #
coedge $-1 -1 -1 $-1 $244 $352 $246 $294 reversed $214 $-1 #
vertex $-1 -1 -1 $-1 $245 $353 #
straight-curve $-1 -1 -1 $-1 -199.11178582686051 60 252.8914896685535 951.05651629515478 0 -309.01699437494398 F -0.0050000000000001276 F 0.0049999999999998336 #
coedge $-1 -1 -1 $-1 $247 $246 $354 $355 reversed $248 $-1 #
edge $-1 -1 -1 $-1 $250 0 $356 0.10458165587008736 $246 $357 forward @7 unknown T -236.1845773720656 60 154.97350934024399 -203.86706840833648 60 254.43657464042801 #
edge $-1 -1 -1 $-1 $249 0 $358 0.10458165587008736 $286 $359 forward @7 unknown T -236.1845773720656 10 154.97350934024399 -203.86706840833648 10 254.43657464042801 #
face $360 -1 -1 $-1 $268 $248 $2 $-1 $361 reversed single T -236.1845773720656 10 154.97350934024399 -203.86706840833648 60 254.43657464042801 F #
point $-1 -1 -1 $-1 -203.86706840833648 10 254.43657464042801 #
point $-1 -1 -1 $-1 -203.86706840833648 60 254.43657464042801 #
coedge $-1 -1 -1 $-1 $349 $252 $362 $363 reversed $155 $-1 #
coedge $-1 -1 -1 $-1 $364 $365 $252 $301 forward $366 $-1 #
edge $-1 -1 -1 $-1 $367 -0.0022283073249494967 $305 0.0983853640669098 $300 $368 forward @7 unknown T -89.501123872316995 10 257.89148966855345 11.112547519542304 10 257.89148966855367 #
coedge $-1 -1 -1 $-1 $369 $253 $256 $308 forward $304 $-1 #
coedge $-1 -1 -1 $-1 $253 $369 $364 $370 reversed $304 $-1 #
loop $-1 -1 -1 $-1 $-1 $369 $371 T 11.112547519542298 10 145.20293725702092 48.2484723234721 60 257.89148966855345 unknown #
vertex $-1 -1 -1 $-1 $301 $372 #
straight-curve $-1 -1 -1 $-1 12.244554382939899 10 254.45642738237899 312.98754276508134 0 -949.75723112481558 F -0.00361677929222636 F 0.11503307007830522 #
coedge $-1 -1 -1 $-1 $256 $255 $373 $374 reversed $257 $-1 #
edge $-1 -1 -1 $-1 $258 0 $375 0.049999999999999996 $302 $376 forward @7 unknown T 48.248472323472001 10 145.20293725702101 48.2484723234721 60 145.20293725702101 #
face $377 -1 -1 $-1 $371 $257 $2 $-1 $378 forward single T 48.248472323472001 10 145.20293725702101 136.19207102695162 60 145.2029372570212 F #
point $-1 -1 -1 $-1 48.248472323472001 10 145.20293725702101 #
coedge $-1 -1 -1 $-1 $260 $379 $380 $381 forward $155 $-1 #
coedge $-1 -1 -1 $-1 $382 $383 $260 $313 reversed $275 $-1 #
edge $-1 -1 -1 $-1 $384 -0.003616779292226445 $315 0.09817923360766305 $260 $385 forward @7 unknown T 41.0149137390191 10 135.20293725702101 142.8109266389086 10 135.2029372570212 #
coedge $-1 -1 -1 $-1 $277 $261 $383 $386 forward $236 $-1 #
vertex $-1 -1 -1 $-1 $386 $387 #
straight-curve $-1 -1 -1 $-1 144.10402310019222 10 138.24928161457501 390.73112848926837 0 920.50485345244272 F -0.0033094278059785627 F 0.12242037832704887 #
point $-1 -1 -1 $-1 191.93747567400348 10 250.93783402610754 #
coedge $-1 -1 -1 $-1 $342 $373 $265 $319 forward $214 $-1 #
edge $-1 -1 -1 $-1 $322 0.003309427805978358 $320 0.12242037832704911 $318 $388 forward @7 unknown T 136.1920710269516 60 145.20293725702115 182.73242713947906 60 254.84514531100052 #
vertex $-1 -1 -1 $-1 $343 $389 #
straight-curve $-1 -1 -1 $-1 182.732427139479 10 254.84514531100049 0 1000 0 F 0 F 0.049999999999999996 #
vertex $-1 -1 -1 $-1 $319 $390 #
straight-curve $-1 -1 -1 $-1 136.1920710269516 10 145.20293725702118 0 1000 0 F 0 F 0.049999999999999996 #
render-rbase-attrib $-1 -1 $391 $-1 $268 1 1 1 1 1 1 1 1 1 1 1 1 0 1 0 1 1 1 $392 $-1 0 0 #
plane-surface $-1 -1 -1 $-1 134.898974565668 10 142.1565928994676 -0.9205048534524426 0 0.39073112848926833 390.73112848926837 0 920.50485345244272 forward_v I I I I #
rgb_color-st-attrib $-1 -1 $-1 $273 $235 2 1 2 1 1 1 1 1 1 1 1 1 1 1 0 1 1 1 0.60000002384185791 0.60000002384185791 0.66666668653488159 #
rh_material-rh_entity $-1 -1 4 4 @5 plain @5 color -4 1 1 1 @5 phong @14 ambient factor -2 1 @14 diffuse factor -2 0.75 @15 specular factor -2 0.5 @8 exponent -2 10 @14 specular color -4 1 1 1 @4 none @5 plain @5 color -4 0 0 0 #
render-rbase-attrib $-1 -1 $393 $-1 $274 1 1 1 1 1 1 1 1 1 1 1 1 0 1 0 1 1 1 $394 $-1 0 0 #
face $395 -1 -1 $-1 $396 $397 $2 $-1 $398 reversed single T -85.0445092224181 10 247.89148966855348 3.878988935089315 60 247.8914896685537 F #
loop $-1 -1 -1 $-1 $-1 $399 $274 T 3.8789889350893101 10 135.20293725702098 41.014913739019185 60 247.89148966855353 unknown #
plane-surface $-1 -1 -1 $-1 2.7469820716917299 10 251.32655195472853 0.94975723112481558 0 0.31298754276508128 312.98754276508134 0 -949.75723112481558 forward_v I I I I #
coedge $-1 -1 -1 $-1 $383 $382 $400 $401 forward $275 $-1 #
coedge $-1 -1 -1 $-1 $400 $342 $277 $334 reversed $214 $-1 #
edge $-1 -1 -1 $-1 $402 -0.0033094278059785627 $344 0.12242037832704887 $277 $403 forward @7 unknown T 142.81092663890846 60 135.2029372570212 191.93747567400348 60 250.93783402610774 #
coedge $-1 -1 -1 $-1 $404 $278 $405 $406 forward $214 $-1 #
coedge $-1 -1 -1 $-1 $407 $408 $278 $337 reversed $409 $-1 #
edge $-1 -1 -1 $-1 $340 0.004581655870087002 $410 0.041430809656312011 $278 $411 forward @7 unknown T -223.84239315664453 60 146.20005529506497 -189.92256825080901 60 160.59816673783149 #
coedge $-1 -1 -1 $-1 $279 $346 $407 $412 forward $339 $-1 #
loop $-1 -1 -1 $-1 $-1 $279 $413 T -223.8423931566447 10 160.59816673783149 -194.356503245385 60 251.34640469667852 unknown #
vertex $-1 -1 -1 $-1 $337 $414 #
straight-curve $-1 -1 -1 $-1 -194.356503245385 60 251.34640469667852 -309.01699437494398 0 -951.05651629515478 F 0 F 0.095418344129912708 #
coedge $-1 -1 -1 $-1 $333 $318 $281 $343 reversed $214 $-1 #
edge $-1 -1 -1 $-1 $344 -0.0050000000000003089 $320 0.0049999999999998492 $281 $415 forward @7 unknown T 182.73242713947892 60 250.93783402610754 191.93747567400351 60 254.84514531100049 #
vertex $-1 -1 -1 $-1 $343 $416 #
straight-curve $-1 -1 -1 $-1 191.93747567400348 10 250.93783402610754 0 1000 0 F 0 F 0.049999999999999996 #
coedge $-1 -1 -1 $-1 $338 $284 $287 $350 forward $339 $-1 #
straight-curve $-1 -1 -1 $-1 -194.356503245385 10 251.34640469667852 0 1000 0 F 0 F 0.049999999999999996 #
coedge $-1 -1 -1 $-1 $417 $286 $418 $419 forward $155 $-1 #
coedge $-1 -1 -1 $-1 $287 $299 $420 $421 reversed $155 $-1 #
edge $-1 -1 -1 $-1 $288 0 $422 0.095418344129912708 $346 $423 forward @7 unknown T -223.8423931566447 10 160.59816673783149 -194.356503245385 10 251.34640469667852 #
point $-1 -1 -1 $-1 -194.356503245385 10 251.34640469667852 #
coedge $-1 -1 -1 $-1 $290 $424 $425 $426 reversed $214 $-1 #
point $-1 -1 -1 $-1 -194.356503245385 60 251.34640469667852 #
coedge $-1 -1 -1 $-1 $425 $418 $293 $355 forward $427 $-1 #
edge $-1 -1 -1 $-1 $358 0 $356 0.049999999999999996 $354 $428 forward @7 unknown T -236.18457737206549 10 154.97350934024402 -236.18457737206549 60 154.97350934024402 #
vertex $-1 -1 -1 $-1 $355 $429 #
straight-curve $-1 -1 -1 $-1 -203.86706840833648 60 254.43657464042801 -309.01699437494398 0 -951.05651629515478 F 0 F 0.10458165587008736 #
vertex $-1 -1 -1 $-1 $355 $430 #
straight-curve $-1 -1 -1 $-1 -203.86706840833648 10 254.43657464042801 -309.01699437494398 0 -951.05651629515478 F 0 F 0.10458165587008736 #
render-rbase-attrib $-1 -1 $431 $-1 $296 1 1 1 1 1 1 1 1 1 1 1 1 0 1 0 1 1 1 $432 $-1 0 0 #
plane-surface $-1 -1 -1 $-1 -203.86706840833648 10 254.43657464042801 0.95105651629515464 0 -0.30901699437494395 -309.01699437494398 0 -951.05651629515478 forward_v I I I I #
coedge $-1 -1 -1 $-1 $433 $434 $299 $363 forward $435 $-1 #
edge $-1 -1 -1 $-1 $436 0.0035691903436879642 $367 0.15376720299189128 $362 $437 forward @7 unknown T -189.92256825080901 10 146.20005529506494 -89.501123872316853 10 257.89148966855345 #
coedge $-1 -1 -1 $-1 $438 $300 $303 $370 forward $366 $-1 #
coedge $-1 -1 -1 $-1 $300 $438 $433 $439 reversed $366 $-1 #
loop $-1 -1 -1 $-1 $-1 $438 $440 T -89.501123872316995 10 257.89148966855345 11.112547519542304 60 257.89148966855367 unknown #
vertex $-1 -1 -1 $-1 $363 $441 #
straight-curve $-1 -1 -1 $-1 -87.272816547367498 10 257.89148966855345 1000 0 2.34301910757613e-12 F -0.0022283073249494967 F 0.0983853640669098 #
coedge $-1 -1 -1 $-1 $303 $302 $442 $443 reversed $304 $-1 #
edge $-1 -1 -1 $-1 $305 0 $444 0.049999999999999996 $364 $445 forward @7 unknown T 11.112547519542298 10 257.89148966855345 11.112547519542298 60 257.89148966855345 #
face $446 -1 -1 $-1 $440 $304 $2 $-1 $447 forward single T 11.112547519542298 10 145.20293725702092 48.2484723234721 60 257.89148966855345 F #
point $-1 -1 -1 $-1 11.112547519542298 10 257.89148966855345 #
coedge $-1 -1 -1 $-1 $318 $442 $307 $374 forward $214 $-1 #
edge $-1 -1 -1 $-1 $375 0.003616779292226549 $322 0.091560377995706058 $373 $448 forward @7 unknown T 48.248472323472093 60 145.20293725702101 136.19207102695162 60 145.2029372570212 #
vertex $-1 -1 -1 $-1 $374 $449 #
straight-curve $-1 -1 -1 $-1 48.248472323472001 10 145.20293725702101 0 1000 0 F 0 F 0.049999999999999996 #
render-rbase-attrib $-1 -1 $450 $-1 $309 1 1 1 1 1 1 1 1 1 1 1 1 0 1 0 1 1 1 $451 $-1 0 0 #
plane-surface $-1 -1 -1 $-1 44.631693031245547 10 145.20293725702101 -2.047954327170685e-15 0 1 1000 0 2.0479543271706851e-12 forward_v I I I I #
coedge $-1 -1 -1 $-1 $311 $417 $452 $453 forward $155 $-1 #
coedge $-1 -1 -1 $-1 $454 $455 $311 $381 reversed $330 $-1 #
edge $-1 -1 -1 $-1 $456 0.0036167792922269081 $384 0.12226662866275852 $311 $457 forward @7 unknown T 3.878988935089315 10 135.20293725702098 41.014913739019185 10 247.89148966855353 #
coedge $-1 -1 -1 $-1 $332 $312 $455 $458 forward $275 $-1 #
coedge $-1 -1 -1 $-1 $312 $332 $314 $386 reversed $275 $-1 #
vertex $-1 -1 -1 $-1 $458 $459 #
straight-curve $-1 -1 -1 $-1 44.631693031245547 10 135.20293725702101 1000 0 2.0479543271706851e-12 F -0.003616779292226445 F 0.09817923360766305 #
edge $-1 -1 -1 $-1 $315 0 $402 0.049999999999999996 $314 $460 forward @7 unknown T 142.8109266389086 10 135.2029372570212 142.8109266389086 60 135.2029372570212 #
point $-1 -1 -1 $-1 142.8109266389086 10 135.2029372570212 #
straight-curve $-1 -1 -1 $-1 134.898974565668 60 142.1565928994676 390.73112848926837 0 920.50485345244272 F 0.003309427805978358 F 0.12242037832704911 #
point $-1 -1 -1 $-1 182.732427139479 60 254.84514531100049 #
point $-1 -1 -1 $-1 136.1920710269516 60 145.20293725702118 #
rgb_color-st-attrib $-1 -1 $-1 $324 $268 2 1 2 1 1 1 1 1 1 1 1 1 1 1 0 1 1 1 0.60000002384185791 0.60000002384185791 0.66666668653488159 #
rh_material-rh_entity $-1 -1 4 4 @5 plain @5 color -4 1 1 1 @5 phong @14 ambient factor -2 1 @14 diffuse factor -2 0.75 @15 specular factor -2 0.5 @8 exponent -2 10 @14 specular color -4 1 1 1 @4 none @5 plain @5 color -4 0 0 0 #
rgb_color-st-attrib $-1 -1 $-1 $328 $274 2 1 2 1 1 1 1 1 1 1 1 1 1 1 0 1 1 1 0.60000002384185791 0.60000002384185791 0.66666668653488159 #
rh_material-rh_entity $-1 -1 4 4 @5 plain @5 color -4 1 1 1 @5 phong @14 ambient factor -2 1 @14 diffuse factor -2 0.75 @15 specular factor -2 0.5 @8 exponent -2 10 @14 specular color -4 1 1 1 @4 none @5 plain @5 color -4 0 0 0 #
render-rbase-attrib $-1 -1 $461 $-1 $329 1 1 1 1 1 1 1 1 1 1 1 1 0 1 0 1 1 1 $462 $-1 0 0 #
face $463 -1 -1 $-1 $464 $465 $2 $-1 $466 reversed single T -187.25896546718153 10 134.20581921897619 -85.044509222418057 60 247.8914896685535 F #
loop $-1 -1 -1 $-1 $-1 $467 $329 T -85.0445092224181 10 247.89148966855348 3.878988935089315 60 247.8914896685537 unknown #
plane-surface $-1 -1 -1 $-1 -87.272816547367498 10 247.89148966855348 -2.3430191075761299e-15 0 1 1000 0 2.34301910757613e-12 forward_v I I I I #
coedge $-1 -1 -1 $-1 $455 $454 $468 $469 forward $330 $-1 #
coedge $-1 -1 -1 $-1 $468 $333 $332 $401 reversed $214 $-1 #
edge $-1 -1 -1 $-1 $470 -0.003616779292226445 $402 0.09817923360766305 $332 $471 forward @7 unknown T 41.0149137390191 60 135.20293725702101 142.8109266389086 60 135.2029372570212 #
vertex $-1 -1 -1 $-1 $386 $472 #
straight-curve $-1 -1 -1 $-1 144.10402310019222 60 138.24928161457501 390.73112848926837 0 920.50485345244272 F -0.0033094278059785627 F 0.12242037832704887 #
coedge $-1 -1 -1 $-1 $442 $335 $438 $473 forward $214 $-1 #
coedge $-1 -1 -1 $-1 $434 $433 $335 $406 reversed $435 $-1 #
edge $-1 -1 -1 $-1 $410 0.0035691903436879642 $474 0.15376720299189128 $335 $475 forward @7 unknown T -189.92256825080901 60 146.20005529506494 -89.501123872316853 60 257.89148966855345 #
coedge $-1 -1 -1 $-1 $420 $336 $338 $412 reversed $409 $-1 #
coedge $-1 -1 -1 $-1 $336 $420 $434 $476 forward $409 $-1 #
loop $-1 -1 -1 $-1 $-1 $336 $477 T -223.84239315664453 10 146.20005529506497 -189.92256825080901 60 160.59816673783149 unknown #
vertex $-1 -1 -1 $-1 $406 $478 #
straight-curve $-1 -1 -1 $-1 -228.05982962190848 60 162.3883623063 920.50485345244101 0 -390.73112848927207 F 0.004581655870087002 F 0.041430809656312011 #
edge $-1 -1 -1 $-1 $422 0 $340 0.049999999999999996 $338 $479 forward @7 unknown T -223.8423931566445 10 160.59816673783149 -223.8423931566445 60 160.59816673783149 #
face $480 -1 -1 $-1 $-1 $339 $2 $-1 $481 forward single T -223.8423931566447 10 160.59816673783149 -194.356503245385 60 251.34640469667852 F #
point $-1 -1 -1 $-1 -223.8423931566445 60 160.59816673783149 #
straight-curve $-1 -1 -1 $-1 187.334951406741 60 252.89148966855402 -920.50485345244272 0 390.73112848926837 F -0.0050000000000003089 F 0.0049999999999998492 #
point $-1 -1 -1 $-1 191.93747567400348 60 250.93783402610754 #
coedge $-1 -1 -1 $-1 $379 $348 $482 $483 forward $155 $-1 #
coedge $-1 -1 -1 $-1 $354 $484 $348 $419 reversed $427 $-1 #
edge $-1 -1 -1 $-1 $358 -0.004581655870087028 $485 0.048569190343687674 $348 $486 forward @7 unknown T -236.18457737206549 10 134.20581921897616 -187.25896546718153 10 154.97350934024408 #
coedge $-1 -1 -1 $-1 $408 $407 $349 $421 forward $409 $-1 #
edge $-1 -1 -1 $-1 $422 0.004581655870087002 $436 0.041430809656312011 $420 $487 forward @7 unknown T -223.84239315664453 10 146.20005529506497 -189.92256825080901 10 160.59816673783149 #
vertex $-1 -1 -1 $-1 $350 $488 #
straight-curve $-1 -1 -1 $-1 -194.356503245385 10 251.34640469667852 -309.01699437494398 0 -951.05651629515478 F 0 F 0.095418344129912708 #
coedge $-1 -1 -1 $-1 $352 $489 $490 $491 reversed $214 $-1 #
coedge $-1 -1 -1 $-1 $484 $354 $352 $426 forward $427 $-1 #
edge $-1 -1 -1 $-1 $356 -0.004581655870087028 $492 0.048569190343687674 $425 $493 forward @7 unknown T -236.18457737206549 60 134.20581921897616 -187.25896546718153 60 154.97350934024408 #
loop $-1 -1 -1 $-1 $-1 $425 $464 T -236.18457737206549 10 134.20581921897616 -187.25896546718153 60 154.97350934024408 unknown #
straight-curve $-1 -1 -1 $-1 -236.18457737206549 10 154.97350934024402 0 1000 0 F 0 F 0.049999999999999996 #
point $-1 -1 -1 $-1 -236.18457737206549 60 154.97350934024402 #
point $-1 -1 -1 $-1 -236.18457737206549 10 154.97350934024402 #
rgb_color-st-attrib $-1 -1 $-1 $360 $296 2 1 2 1 1 1 1 1 1 1 1 1 1 1 0 1 1 1 0.60000002384185791 0.60000002384185791 0.66666668653488159 #
rh_material-rh_entity $-1 -1 4 4 @5 plain @5 color -4 1 1 1 @5 phong @14 ambient factor -2 1 @14 diffuse factor -2 0.75 @15 specular factor -2 0.5 @8 exponent -2 10 @14 specular color -4 1 1 1 @4 none @5 plain @5 color -4 0 0 0 #
coedge $-1 -1 -1 $-1 $405 $362 $365 $439 forward $435 $-1 #
coedge $-1 -1 -1 $-1 $362 $405 $408 $476 reversed $435 $-1 #
loop $-1 -1 -1 $-1 $-1 $405 $494 T -189.92256825080901 10 146.20005529506494 -89.501123872316853 60 257.89148966855345 unknown #
vertex $-1 -1 -1 $-1 $421 $495 #
straight-curve $-1 -1 -1 $-1 -192.308906413714 10 143.54590573602761 668.59369580142902 0 743.62791094376394 F 0.0035691903436879642 F 0.15376720299189128 #
coedge $-1 -1 -1 $-1 $365 $364 $404 $473 reversed $366 $-1 #
edge $-1 -1 -1 $-1 $367 0 $474 0.049999999999999996 $433 $496 forward @7 unknown T -89.501123872316995 10 257.89148966855345 -89.501123872316995 60 257.89148966855345 #
face $497 -1 -1 $-1 $494 $366 $2 $-1 $498 forward single T -89.501123872316995 10 257.89148966855345 11.112547519542304 60 257.89148966855367 F #
point $-1 -1 -1 $-1 -89.501123872316995 10 257.89148966855345 #
coedge $-1 -1 -1 $-1 $373 $404 $369 $443 forward $214 $-1 #
edge $-1 -1 -1 $-1 $444 -0.00361677929222636 $375 0.11503307007830525 $442 $499 forward @7 unknown T 11.112547519542298 60 145.20293725702092 48.2484723234721 60 257.89148966855345 #
vertex $-1 -1 -1 $-1 $443 $500 #
straight-curve $-1 -1 -1 $-1 11.112547519542298 10 257.89148966855345 0 1000 0 F 0 F 0.049999999999999996 #
render-rbase-attrib $-1 -1 $501 $-1 $371 1 1 1 1 1 1 1 1 1 1 1 1 0 1 0 1 1 1 $502 $-1 0 0 #
plane-surface $-1 -1 -1 $-1 12.244554382939899 10 254.45642738237899 0.94975723112481558 0 0.31298754276508128 312.98754276508134 0 -949.75723112481558 forward_v I I I I #
straight-curve $-1 -1 -1 $-1 44.631693031245547 60 145.20293725702101 1000 0 2.0479543271706851e-12 F 0.003616779292226549 F 0.091560377995706058 #
point $-1 -1 -1 $-1 48.2484723234721 60 145.20293725702101 #
rgb_color-st-attrib $-1 -1 $-1 $377 $309 2 1 2 1 1 1 1 1 1 1 1 1 1 1 0 1 1 1 0.60000002384185791 0.60000002384185791 0.66666668653488159 #
rh_material-rh_entity $-1 -1 4 4 @5 plain @5 color -4 1 1 1 @5 phong @14 ambient factor -2 1 @14 diffuse factor -2 0.75 @15 specular factor -2 0.5 @8 exponent -2 10 @14 specular color -4 1 1 1 @4 none @5 plain @5 color -4 0 0 0 #
coedge $-1 -1 -1 $-1 $503 $504 $379 $453 reversed $397 $-1 #
edge $-1 -1 -1 $-1 $505 0.0022283073249493995 $456 0.091151805482456813 $379 $506 forward @7 unknown T -85.0445092224181 10 247.89148966855348 3.878988935089315 10 247.8914896685537 #
coedge $-1 -1 -1 $-1 $399 $380 $504 $507 forward $330 $-1 #
coedge $-1 -1 -1 $-1 $380 $399 $382 $458 reversed $330 $-1 #
vertex $-1 -1 -1 $-1 $507 $508 #
straight-curve $-1 -1 -1 $-1 2.7469820716917299 10 251.32655195472853 312.98754276508134 0 -949.75723112481558 F 0.0036167792922269081 F 0.12226662866275852 #
edge $-1 -1 -1 $-1 $384 0 $470 0.049999999999999996 $382 $509 forward @7 unknown T 41.0149137390191 10 135.20293725702101 41.0149137390191 60 135.20293725702101 #
point $-1 -1 -1 $-1 41.0149137390191 10 135.20293725702101 #
straight-curve $-1 -1 -1 $-1 142.8109266389086 10 135.2029372570212 0 1000 0 F 0 F 0.049999999999999996 #
rgb_color-st-attrib $-1 -1 $-1 $395 $329 2 1 2 1 1 1 1 1 1 1 1 1 1 1 0 1 1 1 0.60000002384185791 0.60000002384185791 0.66666668653488159 #
rh_material-rh_entity $-1 -1 4 4 @5 plain @5 color -4 1 1 1 @5 phong @14 ambient factor -2 1 @14 diffuse factor -2 0.75 @15 specular factor -2 0.5 @8 exponent -2 10 @14 specular color -4 1 1 1 @4 none @5 plain @5 color -4 0 0 0 #
render-rbase-attrib $-1 -1 $510 $-1 $396 1 1 1 1 1 1 1 1 1 1 1 1 0 1 0 1 1 1 $511 $-1 0 0 #
face $512 -1 -1 $-1 $296 $427 $2 $-1 $513 reversed single T -236.18457737206549 10 134.20581921897616 -187.25896546718153 60 154.97350934024408 F #
loop $-1 -1 -1 $-1 $-1 $490 $396 T -187.25896546718153 10 134.20581921897619 -85.044509222418057 60 247.8914896685535 unknown #
plane-surface $-1 -1 -1 $-1 -184.87262730427651 10 136.85996877801341 -0.74362791094376379 0 0.66859369580142891 668.59369580142902 0 743.62791094376394 forward_v I I I I #
coedge $-1 -1 -1 $-1 $504 $503 $489 $514 forward $397 $-1 #
coedge $-1 -1 -1 $-1 $489 $400 $399 $469 reversed $214 $-1 #
edge $-1 -1 -1 $-1 $515 0.0036167792922269064 $470 0.12226662866275852 $399 $516 forward @7 unknown T 3.8789889350893101 60 135.20293725702098 41.014913739019185 60 247.89148966855353 #
vertex $-1 -1 -1 $-1 $458 $517 #
straight-curve $-1 -1 -1 $-1 44.631693031245547 60 135.20293725702101 1000 0 2.0479543271706851e-12 F -0.003616779292226445 F 0.09817923360766305 #
point $-1 -1 -1 $-1 142.8109266389086 60 135.2029372570212 #
edge $-1 -1 -1 $-1 $474 -0.0022283073249494967 $444 0.0983853640669098 $404 $518 forward @7 unknown T -89.501123872316995 60 257.89148966855345 11.112547519542304 60 257.89148966855367 #
vertex $-1 -1 -1 $-1 $473 $519 #
straight-curve $-1 -1 -1 $-1 -192.308906413714 60 143.54590573602761 668.59369580142902 0 743.62791094376394 F 0.0035691903436879642 F 0.15376720299189128 #
edge $-1 -1 -1 $-1 $436 0 $410 0.049999999999999996 $408 $520 forward @7 unknown T -189.92256825080901 10 146.20005529506503 -189.92256825080901 60 146.20005529506503 #
face $521 -1 -1 $-1 $413 $409 $2 $-1 $522 forward single T -223.84239315664453 10 146.20005529506497 -189.92256825080901 60 160.59816673783149 F #
point $-1 -1 -1 $-1 -189.92256825080901 60 146.20005529506503 #
straight-curve $-1 -1 -1 $-1 -223.8423931566445 10 160.59816673783149 0 1000 0 F 0 F 0.049999999999999996 #
render-rbase-attrib $-1 -1 $523 $-1 $413 1 1 1 1 1 1 1 1 1 1 1 1 0 1 0 1 1 1 $524 $-1 0 0 #
plane-surface $-1 -1 -1 $-1 -194.356503245385 10 251.34640469667852 0.95105651629515464 0 -0.30901699437494395 -309.01699437494398 0 -951.05651629515478 forward_v I I I I #
coedge $-1 -1 -1 $-1 $525 $526 $417 $483 reversed $465 $-1 #
edge $-1 -1 -1 $-1 $485 -0.0035691903436877986 $505 0.14931058834199237 $417 $527 forward @7 unknown T -187.25896546718153 10 134.20581921897619 -85.044509222418057 10 247.8914896685535 #
coedge $-1 -1 -1 $-1 $418 $425 $525 $528 reversed $427 $-1 #
vertex $-1 -1 -1 $-1 $528 $529 #
straight-curve $-1 -1 -1 $-1 -231.96714090680149 10 153.18331377177549 920.50485345244101 0 -390.73112848927207 F -0.004581655870087028 F 0.048569190343687674 #
straight-curve $-1 -1 -1 $-1 -228.05982962190848 10 162.3883623063 920.50485345244101 0 -390.73112848927207 F 0.004581655870087002 F 0.041430809656312011 #
point $-1 -1 -1 $-1 -223.8423931566445 10 160.59816673783149 #
coedge $-1 -1 -1 $-1 $424 $468 $467 $514 reversed $214 $-1 #
coedge $-1 -1 -1 $-1 $526 $525 $424 $491 forward $465 $-1 #
edge $-1 -1 -1 $-1 $492 -0.0035691903436877986 $530 0.14931058834199237 $490 $531 forward @7 unknown T -187.25896546718153 60 134.20581921897619 -85.044509222418057 60 247.8914896685535 #
vertex $-1 -1 -1 $-1 $528 $532 #
straight-curve $-1 -1 -1 $-1 -231.96714090680149 60 153.18331377177549 920.50485345244101 0 -390.73112848927207 F -0.004581655870087028 F 0.048569190343687674 #
face $533 -1 -1 $-1 $477 $435 $2 $-1 $534 forward single T -189.92256825080901 10 146.20005529506494 -89.501123872316853 60 257.89148966855345 F #
point $-1 -1 -1 $-1 -189.92256825080901 10 146.20005529506503 #
straight-curve $-1 -1 -1 $-1 -89.501123872316995 10 257.89148966855345 0 1000 0 F 0 F 0.049999999999999996 #
render-rbase-attrib $-1 -1 $535 $-1 $440 1 1 1 1 1 1 1 1 1 1 1 1 0 1 0 1 1 1 $536 $-1 0 0 #
plane-surface $-1 -1 -1 $-1 -87.272816547367498 10 257.89148966855345 -2.3430191075761299e-15 0 1 1000 0 2.34301910757613e-12 forward_v I I I I #
straight-curve $-1 -1 -1 $-1 12.244554382939899 60 254.45642738237899 312.98754276508134 0 -949.75723112481558 F -0.00361677929222636 F 0.11503307007830525 #
point $-1 -1 -1 $-1 11.112547519542298 60 257.89148966855345 #
rgb_color-st-attrib $-1 -1 $-1 $446 $371 2 1 2 1 1 1 1 1 1 1 1 1 1 1 0 1 1 1 0.60000002384185791 0.60000002384185791 0.66666668653488159 #
rh_material-rh_entity $-1 -1 4 4 @5 plain @5 color -4 1 1 1 @5 phong @14 ambient factor -2 1 @14 diffuse factor -2 0.75 @15 specular factor -2 0.5 @8 exponent -2 10 @14 specular color -4 1 1 1 @4 none @5 plain @5 color -4 0 0 0 #
coedge $-1 -1 -1 $-1 $467 $452 $526 $537 forward $397 $-1 #
coedge $-1 -1 -1 $-1 $452 $467 $454 $507 reversed $397 $-1 #
vertex $-1 -1 -1 $-1 $537 $538 #
straight-curve $-1 -1 -1 $-1 -87.272816547367498 10 247.89148966855348 1000 0 2.34301910757613e-12 F 0.0022283073249493995 F 0.091151805482456813 #
edge $-1 -1 -1 $-1 $456 0 $515 0.049999999999999996 $454 $539 forward @7 unknown T 3.8789889350893101 10 247.89148966855348 3.878988935089315 60 247.89148966855348 #
point $-1 -1 -1 $-1 3.878988935089315 10 247.89148966855348 #
straight-curve $-1 -1 -1 $-1 41.0149137390191 10 135.20293725702101 0 1000 0 F 0 F 0.049999999999999996 #
rgb_color-st-attrib $-1 -1 $-1 $463 $396 2 1 2 1 1 1 1 1 1 1 1 1 1 1 0 1 1 1 0.60000002384185791 0.60000002384185791 0.66666668653488159 #
rh_material-rh_entity $-1 -1 4 4 @5 plain @5 color -4 1 1 1 @5 phong @14 ambient factor -2 1 @14 diffuse factor -2 0.75 @15 specular factor -2 0.5 @8 exponent -2 10 @14 specular color -4 1 1 1 @4 none @5 plain @5 color -4 0 0 0 #
render-rbase-attrib $-1 -1 $540 $-1 $464 1 1 1 1 1 1 1 1 1 1 1 1 0 1 0 1 1 1 $541 $-1 0 0 #
plane-surface $-1 -1 -1 $-1 -231.96714090680149 10 153.18331377177549 0.39073112848927199 0 0.92050485345244104 920.50485345244101 0 -390.73112848927207 forward_v I I I I #
edge $-1 -1 -1 $-1 $530 0.0022283073249493995 $515 0.091151805482456813 $467 $542 forward @7 unknown T -85.0445092224181 60 247.89148966855348 3.8789889350893105 60 247.8914896685537 #
vertex $-1 -1 -1 $-1 $507 $543 #
straight-curve $-1 -1 -1 $-1 2.7469820716917299 60 251.32655195472853 312.98754276508134 0 -949.75723112481558 F 0.0036167792922269064 F 0.12226662866275852 #
point $-1 -1 -1 $-1 41.0149137390191 60 135.20293725702101 #
straight-curve $-1 -1 -1 $-1 -87.272816547367498 60 257.89148966855345 1000 0 2.34301910757613e-12 F -0.0022283073249494967 F 0.0983853640669098 #
point $-1 -1 -1 $-1 -89.501123872316995 60 257.89148966855345 #
straight-curve $-1 -1 -1 $-1 -189.92256825080901 10 146.20005529506503 0 1000 0 F 0 F 0.049999999999999996 #
render-rbase-attrib $-1 -1 $544 $-1 $477 1 1 1 1 1 1 1 1 1 1 1 1 0 1 0 1 1 1 $545 $-1 0 0 #
plane-surface $-1 -1 -1 $-1 -228.05982962190848 10 162.3883623063 0.39073112848927199 0 0.92050485345244104 920.50485345244101 0 -390.73112848927207 forward_v I I I I #
rgb_color-st-attrib $-1 -1 $-1 $480 $413 2 1 2 1 1 1 1 1 1 1 1 1 1 1 0 1 1 1 0.60000002384185791 0.60000002384185791 0.66666668653488159 #
rh_material-rh_entity $-1 -1 4 4 @5 plain @5 color -4 1 1 1 @5 phong @14 ambient factor -2 1 @14 diffuse factor -2 0.75 @15 specular factor -2 0.5 @8 exponent -2 10 @14 specular color -4 1 1 1 @4 none @5 plain @5 color -4 0 0 0 #
coedge $-1 -1 -1 $-1 $490 $482 $484 $528 forward $465 $-1 #
coedge $-1 -1 -1 $-1 $482 $490 $503 $537 reversed $465 $-1 #
straight-curve $-1 -1 -1 $-1 -184.87262730427651 10 136.85996877801341 668.59369580142902 0 743.62791094376394 F -0.0035691903436877986 F 0.14931058834199237 #
edge $-1 -1 -1 $-1 $485 0 $492 0.049999999999999996 $525 $546 forward @7 unknown T -187.25896546718153 10 134.20581921897619 -187.25896546718153 60 134.20581921897619 #
point $-1 -1 -1 $-1 -187.25896546718153 10 134.20581921897619 #
vertex $-1 -1 -1 $-1 $537 $547 #
straight-curve $-1 -1 -1 $-1 -184.87262730427651 60 136.85996877801341 668.59369580142902 0 743.62791094376394 F -0.0035691903436877986 F 0.14931058834199237 #
point $-1 -1 -1 $-1 -187.25896546718153 60 134.20581921897619 #
render-rbase-attrib $-1 -1 $548 $-1 $494 1 1 1 1 1 1 1 1 1 1 1 1 0 1 0 1 1 1 $549 $-1 0 0 #
plane-surface $-1 -1 -1 $-1 -192.308906413714 10 143.54590573602761 -0.74362791094376379 0 0.66859369580142891 668.59369580142902 0 743.62791094376394 forward_v I I I I #
rgb_color-st-attrib $-1 -1 $-1 $497 $440 2 1 2 1 1 1 1 1 1 1 1 1 1 1 0 1 1 1 0.60000002384185791 0.60000002384185791 0.66666668653488159 #
rh_material-rh_entity $-1 -1 4 4 @5 plain @5 color -4 1 1 1 @5 phong @14 ambient factor -2 1 @14 diffuse factor -2 0.75 @15 specular factor -2 0.5 @8 exponent -2 10 @14 specular color -4 1 1 1 @4 none @5 plain @5 color -4 0 0 0 #
edge $-1 -1 -1 $-1 $505 0 $530 0.049999999999999996 $503 $550 forward @7 unknown T -85.0445092224181 10 247.89148966855348 -85.0445092224181 60 247.89148966855348 #
point $-1 -1 -1 $-1 -85.0445092224181 10 247.89148966855348 #
straight-curve $-1 -1 -1 $-1 3.8789889350893101 10 247.89148966855348 0 1000 0 F 0 F 0.049999999999999996 #
rgb_color-st-attrib $-1 -1 $-1 $512 $464 2 1 2 1 1 1 1 1 1 1 1 1 1 1 0 1 1 1 0.60000002384185791 0.60000002384185791 0.66666668653488159 #
rh_material-rh_entity $-1 -1 4 4 @5 plain @5 color -4 1 1 1 @5 phong @14 ambient factor -2 1 @14 diffuse factor -2 0.75 @15 specular factor -2 0.5 @8 exponent -2 10 @14 specular color -4 1 1 1 @4 none @5 plain @5 color -4 0 0 0 #
straight-curve $-1 -1 -1 $-1 -87.272816547367498 60 247.89148966855348 1000 0 2.34301910757613e-12 F 0.0022283073249493995 F 0.091151805482456813 #
point $-1 -1 -1 $-1 3.8789889350893101 60 247.89148966855348 #
rgb_color-st-attrib $-1 -1 $-1 $521 $477 2 1 2 1 1 1 1 1 1 1 1 1 1 1 0 1 1 1 0.60000002384185791 0.60000002384185791 0.66666668653488159 #
rh_material-rh_entity $-1 -1 4 4 @5 plain @5 color -4 1 1 1 @5 phong @14 ambient factor -2 1 @14 diffuse factor -2 0.75 @15 specular factor -2 0.5 @8 exponent -2 10 @14 specular color -4 1 1 1 @4 none @5 plain @5 color -4 0 0 0 #
straight-curve $-1 -1 -1 $-1 -187.25896546718153 10 134.20581921897619 0 1000 0 F 0 F 0.049999999999999996 #
point $-1 -1 -1 $-1 -85.0445092224181 60 247.89148966855348 #
rgb_color-st-attrib $-1 -1 $-1 $533 $494 2 1 2 1 1 1 1 1 1 1 1 1 1 1 0 1 1 1 0.60000002384185791 0.60000002384185791 0.66666668653488159 #
rh_material-rh_entity $-1 -1 4 4 @5 plain @5 color -4 1 1 1 @5 phong @14 ambient factor -2 1 @14 diffuse factor -2 0.75 @15 specular factor -2 0.5 @8 exponent -2 10 @14 specular color -4 1 1 1 @4 none @5 plain @5 color -4 0 0 0 #
straight-curve $-1 -1 -1 $-1 -85.0445092224181 10 247.89148966855348 0 1000 0 F 0 F 0.049999999999999996 #
End-of-ACIS-data 