2800 0 1 0           
9 SolidEdge 14 ACIS 31.0.1 NT 24 Sun Nov 13 22:05:24 2022 
1 9.9999999999999995e-07 1e-10 
T @77 QQW6W2EH5GG5DAHB929RXJ9GE3KCPG7WYCMBKKPVXA9CFAP23B4CG6NXACTMMMN5QANBP4QDU8SME 
body $-1 -1 -1 $-1 0 $1 $-1 $-1 T -249.9999999999915 -249.99999999998852 0 249.9999999999915 249.99999999998929 500 #
lump $-1 -1 -1 $-1 $-1 $2 $0 T -249.9999999999915 -249.99999999998852 0 249.9999999999915 249.99999999998929 500 #
shell $-1 -1 -1 $-1 $-1 $-1 $3 $-1 $1 T -249.9999999999915 -249.99999999998852 0 249.9999999999915 249.99999999998929 500 #
face $4 -1 -1 $-1 $5 $6 $2 $-1 $7 forward single T -249.9999999999915 -249.99999999998852 500 249.9999999999915 249.99999999998929 500 F #
render-rbase-attrib $-1 -1 $8 $-1 $3 1 1 1 1 1 1 1 1 1 1 1 1 0 1 0 1 1 1 $9 $-1 0 0 #
face $10 -1 -1 $-1 $11 $12 $2 $-1 $13 reversed single T -249.9999999999915 -249.99999999998803 0 -249.99999999999051 249.999999999989 500 F #
loop $-1 -1 -1 $-1 $-1 $14 $3 T -249.9999999999915 -249.99999999998852 500 249.9999999999915 249.99999999998929 500 unknown #
plane-surface $-1 -1 -1 $-1 0 0 500 0 0 1 1000 0 0 forward_v I I I I #
rgb_color-st-attrib $-1 -1 $-1 $4 $3 2 1 2 1 1 1 1 1 1 1 1 1 1 1 0 1 1 1 0.60000002384185791 0.60000002384185791 0.66666668653488159 #
rh_material-rh_entity $-1 -1 4 4 @5 plain @5 color -4 1 1 1 @5 phong @14 ambient factor -2 1 @14 diffuse factor -2 0.75 @15 specular factor -2 0.5 @8 exponent -2 10 @14 specular color -4 1 1 1 @4 none @5 plain @5 color -4 0 0 0 #
render-rbase-attrib $-1 -1 $15 $-1 $5 1 1 1 1 1 1 1 1 1 1 1 1 0 1 0 1 1 1 $16 $-1 0 0 #
face $17 -1 -1 $-1 $18 $19 $2 $-1 $20 reversed single T -249.99999999999051 249.999999999989 0 249.9999999999915 249.99999999998929 500 F #
loop $-1 -1 -1 $-1 $-1 $21 $5 T -249.9999999999915 -249.99999999998803 0 -249.99999999999051 249.999999999989 500 unknown #
plane-surface $-1 -1 -1 $-1 -249.99999999999051 249.999999999989 500 1 -1.9428902930941151e-15 0 1.9428902930941152e-12 1000 0 forward_v I I I I #
coedge $-1 -1 -1 $-1 $22 $23 $24 $25 forward $6 $-1 #
rgb_color-st-attrib $-1 -1 $-1 $10 $5 2 1 2 1 1 1 1 1 1 1 1 1 1 1 0 1 1 1 0.60000002384185791 0.60000002384185791 0.66666668653488159 #
rh_material-rh_entity $-1 -1 4 4 @5 plain @5 color -4 1 1 1 @5 phong @14 ambient factor -2 1 @14 diffuse factor -2 0.75 @15 specular factor -2 0.5 @8 exponent -2 10 @14 specular color -4 1 1 1 @4 none @5 plain @5 color -4 0 0 0 #
render-rbase-attrib $-1 -1 $26 $-1 $11 1 1 1 1 1 1 1 1 1 1 1 1 0 1 0 1 1 1 $27 $-1 0 0 #
face $28 -1 -1 $-1 $29 $30 $2 $-1 $31 reversed single T -249.9999999999915 -249.99999999998852 0 249.9999999999915 249.99999999998929 0 F #
loop $-1 -1 -1 $-1 $-1 $32 $11 T -249.99999999999051 249.999999999989 0 249.9999999999915 249.99999999998929 500 unknown #
plane-surface $-1 -1 -1 $-1 249.99999999999051 249.999999999989 500 -5.5511151231260006e-16 -1 0 1000 -5.5511151231260008e-13 0 forward_v I I I I #
coedge $-1 -1 -1 $-1 $33 $34 $35 $36 forward $12 $-1 #
coedge $-1 -1 -1 $-1 $37 $14 $38 $39 forward $6 $-1 #
coedge $-1 -1 -1 $-1 $14 $37 $40 $41 forward $6 $-1 #
coedge $-1 -1 -1 $-1 $34 $33 $14 $25 reversed $12 $-1 #
edge $-1 -1 -1 $-1 $42 0 $43 0.49999999999997702 $14 $44 forward @7 unknown T -249.9999999999915 -249.99999999998803 500 -249.99999999999051 249.999999999989 500 #
rgb_color-st-attrib $-1 -1 $-1 $17 $11 2 1 2 1 1 1 1 1 1 1 1 1 1 1 0 1 1 1 0.60000002384185791 0.60000002384185791 0.66666668653488159 #
rh_material-rh_entity $-1 -1 4 4 @5 plain @5 color -4 1 1 1 @5 phong @14 ambient factor -2 1 @14 diffuse factor -2 0.75 @15 specular factor -2 0.5 @8 exponent -2 10 @14 specular color -4 1 1 1 @4 none @5 plain @5 color -4 0 0 0 #
render-rbase-attrib $-1 -1 $45 $-1 $18 1 1 1 1 1 1 1 1 1 1 1 1 0 1 0 1 1 1 $46 $-1 0 0 #
face $47 -1 -1 $-1 $48 $49 $2 $-1 $50 reversed single T -249.9999999999915 -249.99999999998852 0 249.99999999999054 -249.99999999998801 500 F #
loop $-1 -1 -1 $-1 $-1 $35 $18 T -249.9999999999915 -249.99999999998852 0 249.9999999999915 249.99999999998929 0 unknown #
plane-surface $-1 -1 -1 $-1 0 0 0 0 0 1 1000 0 0 forward_v I I I I #
coedge $-1 -1 -1 $-1 $51 $52 $53 $54 forward $19 $-1 #
coedge $-1 -1 -1 $-1 $24 $21 $55 $56 reversed $12 $-1 #
coedge $-1 -1 -1 $-1 $21 $24 $51 $57 forward $12 $-1 #
coedge $-1 -1 -1 $-1 $53 $58 $21 $36 reversed $30 $-1 #
edge $-1 -1 -1 $-1 $59 0 $60 0.49999999999997702 $21 $61 forward @7 unknown T -249.9999999999915 -249.99999999998803 0 -249.99999999999051 249.999999999989 0 #
coedge $-1 -1 -1 $-1 $23 $22 $62 $63 forward $6 $-1 #
coedge $-1 -1 -1 $-1 $55 $64 $22 $39 reversed $49 $-1 #
edge $-1 -1 -1 $-1 $43 0 $65 0.49999999999998201 $22 $66 forward @7 unknown T -249.9999999999915 -249.99999999998852 500 249.99999999999054 -249.99999999998801 500 #
coedge $-1 -1 -1 $-1 $52 $51 $23 $41 reversed $19 $-1 #
edge $-1 -1 -1 $-1 $67 -9.9920072216264089e-16 $42 0.49999999999998102 $23 $68 forward @7 unknown T -249.99999999999051 249.999999999989 500 249.9999999999915 249.99999999998929 500 #
vertex $-1 -1 -1 $-1 $41 $69 #
vertex $-1 -1 -1 $-1 $39 $70 #
straight-curve $-1 -1 -1 $-1 -249.99999999999051 249.999999999989 500 -1.9428902930941152e-12 -1000 0 F 0 F 0.49999999999997702 #
rgb_color-st-attrib $-1 -1 $-1 $28 $18 2 1 2 1 1 1 1 1 1 1 1 1 1 1 0 1 1 1 0.60000002384185791 0.60000002384185791 0.66666668653488159 #
rh_material-rh_entity $-1 -1 4 4 @5 plain @5 color -4 1 1 1 @5 phong @14 ambient factor -2 1 @14 diffuse factor -2 0.75 @15 specular factor -2 0.5 @8 exponent -2 10 @14 specular color -4 1 1 1 @4 none @5 plain @5 color -4 0 0 0 #
render-rbase-attrib $-1 -1 $71 $-1 $29 1 1 1 1 1 1 1 1 1 1 1 1 0 1 0 1 1 1 $72 $-1 0 0 #
face $73 -1 -1 $-1 $-1 $74 $2 $-1 $75 reversed single T 249.99999999999051 -249.99999999998852 0 249.9999999999915 249.999999999989 500 F #
loop $-1 -1 -1 $-1 $-1 $76 $29 T -249.9999999999915 -249.99999999998852 0 249.99999999999054 -249.99999999998801 500 unknown #
plane-surface $-1 -1 -1 $-1 -249.9999999999915 -249.99999999998801 500 5.5511151231259898e-16 1 0 -1000 5.5511151231259897e-13 0 forward_v I I I I #
coedge $-1 -1 -1 $-1 $40 $32 $34 $57 reversed $19 $-1 #
coedge $-1 -1 -1 $-1 $32 $40 $77 $78 forward $19 $-1 #
coedge $-1 -1 -1 $-1 $79 $35 $32 $54 reversed $30 $-1 #
edge $-1 -1 -1 $-1 $80 -9.9920072216264089e-16 $59 0.49999999999998102 $32 $81 forward @7 unknown T -249.99999999999051 249.999999999989 0 249.9999999999915 249.99999999998929 0 #
coedge $-1 -1 -1 $-1 $76 $38 $33 $56 forward $49 $-1 #
edge $-1 -1 -1 $-1 $43 0 $60 0.5 $55 $82 forward @7 unknown T -249.9999999999915 -249.99999999998801 0 -249.9999999999915 -249.99999999998801 500 #
edge $-1 -1 -1 $-1 $42 0 $59 0.5 $34 $83 forward @7 unknown T -249.99999999999051 249.999999999989 0 -249.99999999999051 249.999999999989 500 #
coedge $-1 -1 -1 $-1 $35 $79 $76 $84 reversed $30 $-1 #
vertex $-1 -1 -1 $-1 $54 $85 #
vertex $-1 -1 -1 $-1 $84 $86 #
straight-curve $-1 -1 -1 $-1 -249.99999999999051 249.999999999989 0 -1.9428902930941152e-12 -1000 0 F 0 F 0.49999999999997702 #
coedge $-1 -1 -1 $-1 $87 $77 $37 $63 reversed $74 $-1 #
edge $-1 -1 -1 $-1 $65 4.9960036108132044e-16 $67 0.49999999999997802 $37 $88 forward @7 unknown T 249.99999999999051 -249.99999999998852 500 249.9999999999915 249.999999999989 500 #
coedge $-1 -1 -1 $-1 $38 $76 $87 $89 reversed $49 $-1 #
vertex $-1 -1 -1 $-1 $39 $90 #
straight-curve $-1 -1 -1 $-1 -249.9999999999915 -249.99999999998801 500 1000 -5.5511151231259897e-13 0 F 0 F 0.49999999999998201 #
vertex $-1 -1 -1 $-1 $63 $91 #
straight-curve $-1 -1 -1 $-1 249.99999999999051 249.999999999989 500 -1000 5.5511151231260008e-13 0 F -9.9920072216264089e-16 F 0.49999999999998102 #
point $-1 -1 -1 $-1 -249.99999999999051 249.999999999989 500 #
point $-1 -1 -1 $-1 -249.9999999999915 -249.99999999998801 500 #
rgb_color-st-attrib $-1 -1 $-1 $47 $29 2 1 2 1 1 1 1 1 1 1 1 1 1 1 0 1 1 1 0.60000002384185791 0.60000002384185791 0.66666668653488159 #
rh_material-rh_entity $-1 -1 4 4 @5 plain @5 color -4 1 1 1 @5 phong @14 ambient factor -2 1 @14 diffuse factor -2 0.75 @15 specular factor -2 0.5 @8 exponent -2 10 @14 specular color -4 1 1 1 @4 none @5 plain @5 color -4 0 0 0 #
render-rbase-attrib $-1 -1 $92 $-1 $48 1 1 1 1 1 1 1 1 1 1 1 1 0 1 0 1 1 1 $93 $-1 0 0 #
loop $-1 -1 -1 $-1 $-1 $94 $48 T 249.99999999999051 -249.99999999998852 0 249.9999999999915 249.999999999989 500 unknown #
plane-surface $-1 -1 -1 $-1 249.99999999999051 -249.999999999989 500 -1 1.9428902930941099e-15 0 -1.94289029309411e-12 -1000 0 forward_v I I I I #
coedge $-1 -1 -1 $-1 $64 $55 $58 $84 forward $49 $-1 #
coedge $-1 -1 -1 $-1 $62 $94 $52 $78 reversed $74 $-1 #
edge $-1 -1 -1 $-1 $67 0 $80 0.5 $52 $95 forward @7 unknown T 249.9999999999915 249.999999999989 0 249.9999999999915 249.999999999989 500 #
coedge $-1 -1 -1 $-1 $58 $53 $94 $96 reversed $30 $-1 #
vertex $-1 -1 -1 $-1 $96 $97 #
straight-curve $-1 -1 -1 $-1 249.99999999999051 249.999999999989 0 -1000 5.5511151231260008e-13 0 F -9.9920072216264089e-16 F 0.49999999999998102 #
straight-curve $-1 -1 -1 $-1 -249.9999999999915 -249.99999999998801 500 0 0 -1000 F 0 F 0.5 #
straight-curve $-1 -1 -1 $-1 -249.99999999999051 249.999999999989 500 0 0 -1000 F 0 F 0.5 #
edge $-1 -1 -1 $-1 $60 0 $98 0.49999999999998201 $76 $99 forward @7 unknown T -249.9999999999915 -249.99999999998852 0 249.99999999999054 -249.99999999998801 0 #
point $-1 -1 -1 $-1 -249.99999999999051 249.999999999989 0 #
point $-1 -1 -1 $-1 -249.9999999999915 -249.99999999998801 0 #
coedge $-1 -1 -1 $-1 $94 $62 $64 $89 forward $74 $-1 #
straight-curve $-1 -1 -1 $-1 249.99999999999051 -249.999999999989 500 1.94289029309411e-12 1000 0 F 4.9960036108132044e-16 F 0.49999999999997802 #
edge $-1 -1 -1 $-1 $65 0 $98 0.5 $87 $100 forward @7 unknown T 249.99999999999051 -249.99999999998852 0 249.99999999999051 -249.99999999998852 500 #
point $-1 -1 -1 $-1 249.99999999999051 -249.99999999998852 500 #
point $-1 -1 -1 $-1 249.9999999999915 249.999999999989 500 #
rgb_color-st-attrib $-1 -1 $-1 $73 $48 2 1 2 1 1 1 1 1 1 1 1 1 1 1 0 1 1 1 0.60000002384185791 0.60000002384185791 0.66666668653488159 #
rh_material-rh_entity $-1 -1 4 4 @5 plain @5 color -4 1 1 1 @5 phong @14 ambient factor -2 1 @14 diffuse factor -2 0.75 @15 specular factor -2 0.5 @8 exponent -2 10 @14 specular color -4 1 1 1 @4 none @5 plain @5 color -4 0 0 0 #
coedge $-1 -1 -1 $-1 $77 $87 $79 $96 forward $74 $-1 #
straight-curve $-1 -1 -1 $-1 249.9999999999915 249.999999999989 500 0 0 -1000 F 0 F 0.5 #
edge $-1 -1 -1 $-1 $98 4.9960036108132044e-16 $80 0.49999999999997802 $94 $101 forward @7 unknown T 249.99999999999051 -249.99999999998852 0 249.9999999999915 249.999999999989 0 #
point $-1 -1 -1 $-1 249.9999999999915 249.999999999989 0 #
vertex $-1 -1 -1 $-1 $84 $102 #
straight-curve $-1 -1 -1 $-1 -249.9999999999915 -249.99999999998801 0 1000 -5.5511151231259897e-13 0 F 0 F 0.49999999999998201 #
straight-curve $-1 -1 -1 $-1 249.99999999999051 -249.99999999998852 500 0 0 -1000 F 0 F 0.5 #
straight-curve $-1 -1 -1 $-1 249.99999999999051 -249.999999999989 0 1.94289029309411e-12 1000 0 F 4.9960036108132044e-16 F 0.49999999999997802 #
point $-1 -1 -1 $-1 249.99999999999051 -249.99999999998852 0 #
End-of-ACIS-data 