2800 0 1 0           
9 SolidEdge 14 ACIS 31.0.1 NT 24 Wed Nov 16 07:01:06 2022 
1 9.9999999999999995e-07 1e-10 
T @77 SQBT3_VT9KN7JEU8DC8EQED2T5NCP66CG8_MQBQXEBGVFPP4QCT3K86XPAKCKA6UJCQUP473KCNUS 
body $-1 -1 -1 $-1 0 $1 $-1 $-1 T -199.99999999999099 -149.99999999999545 0 199.99999999999105 149.99999999999577 80 #
lump $-1 -1 -1 $-1 $-1 $2 $0 T -199.99999999999099 -149.99999999999545 0 199.99999999999105 149.99999999999577 80 #
shell $-1 -1 -1 $-1 $-1 $-1 $3 $-1 $1 T -199.99999999999099 -149.99999999999545 0 199.99999999999105 149.99999999999577 80 #
face $4 -1 -1 $-1 $5 $6 $2 $-1 $7 reversed single T -161.99999999999099 -149.9999999999954 0 149.99999999999039 -149.9999999999952 80 F #
render-rbase-attrib $-1 -1 $8 $-1 $3 1 1 1 1 1 1 1 1 1 1 1 1 0 1 0 1 1 1 $9 $-1 0 0 #
face $10 -1 -1 $-1 $11 $12 $2 $-1 $13 forward single T -199.99999999999099 -149.99999999999545 0 199.99999999999105 149.99999999999577 0 F #
loop $-1 -1 -1 $-1 $-1 $14 $3 T -161.99999999999099 -149.9999999999954 0 149.99999999999039 -149.9999999999952 80 unknown #
plane-surface $-1 -1 -1 $-1 -199.99999999999099 -149.9999999999952 80 5.5511151231260401e-16 1 0 -1000 5.5511151231260402e-13 0 forward_v I I I I #
rgb_color-st-attrib $-1 -1 $-1 $4 $3 2 1 2 1 1 1 1 1 1 1 1 1 1 1 0 1 1 1 0.60000002384185791 0.60000002384185791 0.66666668653488159 #
rh_material-rh_entity $-1 -1 4 4 @5 plain @5 color -4 1 1 1 @5 phong @14 ambient factor -2 1 @14 diffuse factor -2 0.75 @15 specular factor -2 0.5 @8 exponent -2 10 @14 specular color -4 1 1 1 @4 none @5 plain @5 color -4 0 0 0 #
render-rbase-attrib $-1 -1 $15 $-1 $5 1 1 1 1 1 1 1 1 1 1 1 1 0 1 0 1 1 1 $16 $-1 0 0 #
face $17 -1 -1 $-1 $18 $19 $2 $-1 $20 reversed single T -199.99999999999099 -111.9999999999952 0 -199.99999999999048 149.99999999999577 80 F #
loop $-1 -1 -1 $-1 $-1 $21 $5 T -199.99999999999099 -149.99999999999545 0 199.99999999999105 149.99999999999577 0 unknown #
plane-surface $-1 -1 -1 $-1 -19.91571588665505 149.99999999999577 0 0 0 -1 -1000 0 0 forward_v I I I I #
coedge $-1 -1 -1 $-1 $22 $23 $24 $25 reversed $6 $-1 #
rgb_color-st-attrib $-1 -1 $-1 $10 $5 2 1 2 1 1 1 1 1 1 1 1 1 1 1 0 1 1 1 0.60000002384185791 0.60000002384185791 0.66666668653488159 #
rh_material-rh_entity $-1 -1 4 4 @5 plain @5 color -4 1 1 1 @5 phong @14 ambient factor -2 1 @14 diffuse factor -2 0.75 @15 specular factor -2 0.5 @8 exponent -2 10 @14 specular color -4 1 1 1 @4 none @5 plain @5 color -4 0 0 0 #
render-rbase-attrib $-1 -1 $26 $-1 $11 1 1 1 1 1 1 1 1 1 1 1 1 0 1 0 1 1 1 $27 $-1 0 0 #
face $28 -1 -1 $-1 $29 $30 $2 $-1 $31 reversed single T -199.99999999999099 -149.9999999999954 80 199.99999999999105 149.99999999999577 80 F #
loop $-1 -1 -1 $-1 $-1 $32 $11 T -199.99999999999099 -111.9999999999952 0 -199.99999999999048 149.99999999999577 80 unknown #
plane-surface $-1 -1 -1 $-1 -199.99999999999048 149.99999999999577 80 1 -1.85037170770865e-15 0 1.8503717077086501e-12 1000 0 forward_v I I I I #
coedge $-1 -1 -1 $-1 $33 $34 $35 $36 reversed $12 $-1 #
coedge $-1 -1 -1 $-1 $35 $14 $37 $38 forward $6 $-1 #
coedge $-1 -1 -1 $-1 $14 $35 $39 $40 forward $6 $-1 #
coedge $-1 -1 -1 $-1 $41 $42 $14 $25 forward $30 $-1 #
edge $-1 -1 -1 $-1 $43 0.038000000000000006 $44 0.34999999999998138 $24 $45 forward @7 unknown T -161.99999999999099 -149.9999999999954 80 149.99999999999039 -149.9999999999952 80 #
rgb_color-st-attrib $-1 -1 $-1 $17 $11 2 1 2 1 1 1 1 1 1 1 1 1 1 1 0 1 1 1 0.60000002384185791 0.60000002384185791 0.66666668653488159 #
rh_material-rh_entity $-1 -1 4 4 @5 plain @5 color -4 1 1 1 @5 phong @14 ambient factor -2 1 @14 diffuse factor -2 0.75 @15 specular factor -2 0.5 @8 exponent -2 10 @14 specular color -4 1 1 1 @4 none @5 plain @5 color -4 0 0 0 #
render-rbase-attrib $-1 -1 $46 $-1 $18 1 1 1 1 1 1 1 1 1 1 1 1 0 1 0 1 1 1 $47 $-1 0 0 #
face $48 -1 -1 $-1 $49 $50 $2 $-1 $51 forward single T -199.99999999999099 -149.9999999999952 0 -161.99999999999099 -111.9999999999952 80 F #
loop $-1 -1 -1 $-1 $-1 $52 $18 T -199.99999999999099 -149.9999999999954 80 199.99999999999105 149.99999999999577 80 unknown #
plane-surface $-1 -1 -1 $-1 -19.91571588665505 149.99999999999577 80 0 0 -1 -1000 0 0 forward_v I I I I #
coedge $-1 -1 -1 $-1 $53 $54 $55 $56 forward $19 $-1 #
coedge $-1 -1 -1 $-1 $55 $21 $57 $58 forward $12 $-1 #
coedge $-1 -1 -1 $-1 $21 $59 $60 $61 forward $12 $-1 #
coedge $-1 -1 -1 $-1 $23 $22 $21 $36 forward $6 $-1 #
edge $-1 -1 -1 $-1 $62 0.038000000000000006 $63 0.34999999999998138 $35 $64 forward @7 unknown T -161.99999999999099 -149.9999999999954 0 149.99999999999039 -149.9999999999952 0 #
coedge $-1 -1 -1 $-1 $65 $57 $22 $38 reversed $50 $-1 #
edge $-1 -1 -1 $-1 $43 0 $62 0.080000000000000002 $22 $66 forward @7 unknown T -161.99999999999099 -149.9999999999952 0 -161.99999999999099 -149.9999999999952 80 #
coedge $-1 -1 -1 $-1 $60 $67 $23 $40 reversed $68 $-1 #
edge $-1 -1 -1 $-1 $63 -0.080000000000000002 $44 0 $23 $69 forward @7 unknown T 149.99999999999039 -149.9999999999954 0 149.99999999999039 -149.9999999999954 80 #
coedge $-1 -1 -1 $-1 $70 $24 $67 $71 forward $30 $-1 #
coedge $-1 -1 -1 $-1 $24 $52 $65 $72 forward $30 $-1 #
vertex $-1 -1 -1 $-1 $72 $73 #
vertex $-1 -1 -1 $-1 $25 $74 #
straight-curve $-1 -1 -1 $-1 -199.99999999999099 -149.9999999999952 80 1000 -5.5511151231260402e-13 0 F 0.038000000000000006 F 0.34999999999998138 #
rgb_color-st-attrib $-1 -1 $-1 $28 $18 2 1 2 1 1 1 1 1 1 1 1 1 1 1 0 1 1 1 0.60000002384185791 0.60000002384185791 0.66666668653488159 #
rh_material-rh_entity $-1 -1 4 4 @5 plain @5 color -4 1 1 1 @5 phong @14 ambient factor -2 1 @14 diffuse factor -2 0.75 @15 specular factor -2 0.5 @8 exponent -2 10 @14 specular color -4 1 1 1 @4 none @5 plain @5 color -4 0 0 0 #
render-rbase-attrib $-1 -1 $75 $-1 $29 1 1 1 1 1 1 1 1 1 1 1 1 0 1 0 1 1 1 $76 $-1 0 0 #
face $77 -1 -1 $-1 $78 $68 $2 $-1 $79 reversed single T 149.99999999999034 -149.99999999999545 0 199.99999999999054 -99.999999999995396 80 F #
loop $-1 -1 -1 $-1 $-1 $65 $29 T -199.99999999999099 -149.9999999999952 0 -161.99999999999099 -111.9999999999952 80 unknown #
cone-surface $-1 -1 -1 $-1 -161.99999999999099 -111.9999999999952 80 -0 -0 1 -38 0 0 1 I I -0 1 38 forward I I I I #
coedge $-1 -1 -1 $-1 $42 $80 $81 $82 forward $30 $-1 #
coedge $-1 -1 -1 $-1 $81 $32 $83 $84 forward $19 $-1 #
coedge $-1 -1 -1 $-1 $32 $81 $85 $86 forward $19 $-1 #
coedge $-1 -1 -1 $-1 $87 $33 $32 $56 reversed $12 $-1 #
edge $-1 -1 -1 $-1 $88 0 $89 0.26199999999999096 $32 $90 forward @7 unknown T -199.99999999999099 -111.9999999999952 0 -199.99999999999048 149.99999999999577 0 #
coedge $-1 -1 -1 $-1 $37 $83 $33 $58 reversed $50 $-1 #
edge $-1 -1 -1 $-1 $62 4.7123889803846897 $89 6.2831853071795862 $33 $91 forward @7 unknown T -199.99999999999099 -149.9999999999952 0 -161.99999999999099 -111.9999999999952 0 #
coedge $-1 -1 -1 $-1 $34 $92 $93 $94 reversed $12 $-1 #
coedge $-1 -1 -1 $-1 $95 $39 $34 $61 reversed $68 $-1 #
edge $-1 -1 -1 $-1 $96 0.021272801303688919 $63 0.091983479422343778 $34 $97 reversed @7 unknown T 149.99999999999039 -149.99999999999545 0 199.99999999999054 -99.999999999995396 0 #
vertex $-1 -1 -1 $-1 $58 $98 #
vertex $-1 -1 -1 $-1 $36 $99 #
straight-curve $-1 -1 -1 $-1 -199.99999999999099 -149.9999999999952 0 1000 -5.5511151231260402e-13 0 F 0.038000000000000006 F 0.34999999999998138 #
coedge $-1 -1 -1 $-1 $83 $37 $42 $72 reversed $50 $-1 #
straight-curve $-1 -1 -1 $-1 -161.99999999999099 -149.9999999999952 80 0 0 -1000 F 0 F 0.080000000000000002 #
coedge $-1 -1 -1 $-1 $39 $95 $41 $71 reversed $68 $-1 #
loop $-1 -1 -1 $-1 $-1 $67 $49 T 149.99999999999034 -149.99999999999545 0 199.99999999999054 -99.999999999995396 80 unknown #
straight-curve $-1 -1 -1 $-1 149.99999999999039 -149.9999999999954 80 0 0 1000 F -0.080000000000000002 F 0 #
coedge $-1 -1 -1 $-1 $100 $41 $101 $102 forward $30 $-1 #
edge $-1 -1 -1 $-1 $44 -0.070710678118654863 $103 -0 $41 $104 reversed @7 unknown T 149.99999999999034 -149.9999999999954 80 199.99999999999048 -99.999999999995396 80 #
edge $-1 -1 -1 $-1 $105 -6.2831853071795862 $43 -4.7123889803846897 $42 $106 reversed @7 unknown T -199.99999999999099 -149.9999999999952 80 -161.99999999999099 -111.9999999999952 80 #
point $-1 -1 -1 $-1 -161.99999999999099 -149.9999999999952 80 #
point $-1 -1 -1 $-1 149.99999999999039 -149.9999999999954 80 #
rgb_color-st-attrib $-1 -1 $-1 $48 $29 2 1 2 1 1 1 1 1 1 1 1 1 1 1 0 1 1 1 0.60000002384185791 0.60000002384185791 0.66666668653488159 #
rh_material-rh_entity $-1 -1 4 4 @5 plain @5 color -4 1 1 1 @5 phong @14 ambient factor -2 1 @14 diffuse factor -2 0.75 @15 specular factor -2 0.5 @8 exponent -2 10 @14 specular color -4 1 1 1 @4 none @5 plain @5 color -4 0 0 0 #
render-rbase-attrib $-1 -1 $107 $-1 $49 1 1 1 1 1 1 1 1 1 1 1 1 0 1 0 1 1 1 $108 $-1 0 0 #
face $109 -1 -1 $-1 $110 $111 $2 $-1 $112 reversed single T -199.99999999999051 149.99999999999577 0 -94.999999999990507 149.99999999999577 80 F #
plane-surface $-1 -1 -1 $-1 199.99999999999048 -99.999999999995396 80 -0.70710678118654657 0.70710678118654857 0 0 0 -1000 forward_v I I I I #
coedge $-1 -1 -1 $-1 $52 $113 $114 $115 forward $30 $-1 #
coedge $-1 -1 -1 $-1 $54 $53 $52 $82 reversed $19 $-1 #
edge $-1 -1 -1 $-1 $116 0 $105 0.26199999999999096 $52 $117 forward @7 unknown T -199.99999999999099 -111.9999999999952 80 -199.99999999999048 149.99999999999577 80 #
coedge $-1 -1 -1 $-1 $57 $65 $53 $84 reversed $50 $-1 #
edge $-1 -1 -1 $-1 $89 -0.080000000000000002 $105 -0 $53 $118 reversed @7 unknown T -199.99999999999099 -111.9999999999952 0 -199.99999999999099 -111.9999999999952 80 #
coedge $-1 -1 -1 $-1 $114 $119 $54 $86 reversed $111 $-1 #
edge $-1 -1 -1 $-1 $116 0 $88 0.080000000000000002 $54 $120 forward @7 unknown T -199.99999999999048 149.99999999999577 0 -199.99999999999048 149.99999999999577 80 #
coedge $-1 -1 -1 $-1 $121 $55 $119 $122 reversed $12 $-1 #
vertex $-1 -1 -1 $-1 $122 $123 #
vertex $-1 -1 -1 $-1 $58 $124 #
straight-curve $-1 -1 -1 $-1 -199.99999999999048 149.99999999999577 0 -1.8503717077086501e-12 -1000 0 F 0 F 0.26199999999999096 #
ellipse-curve $-1 -1 -1 $-1 -161.99999999999099 -111.9999999999952 0 0 0 -1 -38 0 0 1 F 4.7123889803846897 F 6.2831853071795862 #
coedge $-1 -1 -1 $-1 $59 $121 $125 $126 reversed $12 $-1 #
coedge $-1 -1 -1 $-1 $127 $128 $59 $94 forward $129 $-1 #
edge $-1 -1 -1 $-1 $96 0.049999999999999795 $130 0.29999999999999077 $93 $131 forward @7 unknown T 199.99999999999048 -99.999999999995396 0 199.99999999999105 149.99999999999559 0 #
coedge $-1 -1 -1 $-1 $67 $60 $128 $132 reversed $68 $-1 #
vertex $-1 -1 -1 $-1 $61 $133 #
straight-curve $-1 -1 -1 $-1 215.04214205666301 -84.957857943323006 0 707.10678118654857 707.10678118654653 0 F -0.091983479422343778 F -0.021272801303688919 #
point $-1 -1 -1 $-1 -161.99999999999099 -149.9999999999952 0 #
point $-1 -1 -1 $-1 149.99999999999039 -149.9999999999954 0 #
coedge $-1 -1 -1 $-1 $113 $70 $134 $135 forward $30 $-1 #
coedge $-1 -1 -1 $-1 $128 $127 $70 $102 reversed $129 $-1 #
edge $-1 -1 -1 $-1 $103 0.049999999999999795 $136 0.29999999999999077 $70 $137 forward @7 unknown T 199.99999999999048 -99.999999999995396 80 199.99999999999105 149.99999999999559 80 #
vertex $-1 -1 -1 $-1 $71 $138 #
straight-curve $-1 -1 -1 $-1 199.99999999999048 -99.999999999995396 80 -707.10678118654857 -707.10678118654653 0 F 0 F 0.070710678118654863 #
vertex $-1 -1 -1 $-1 $84 $139 #
ellipse-curve $-1 -1 -1 $-1 -161.99999999999099 -111.9999999999952 80 0 0 -1 -38 0 0 1 F 4.7123889803846897 F 6.2831853071795862 #
rgb_color-st-attrib $-1 -1 $-1 $77 $49 2 1 2 1 1 1 1 1 1 1 1 1 1 1 0 1 1 1 0.60000002384185791 0.60000002384185791 0.66666668653488159 #
rh_material-rh_entity $-1 -1 4 4 @5 plain @5 color -4 1 1 1 @5 phong @14 ambient factor -2 1 @14 diffuse factor -2 0.75 @15 specular factor -2 0.5 @8 exponent -2 10 @14 specular color -4 1 1 1 @4 none @5 plain @5 color -4 0 0 0 #
render-rbase-attrib $-1 -1 $140 $-1 $78 1 1 1 1 1 1 1 1 1 1 1 1 0 1 0 1 1 1 $141 $-1 0 0 #
face $142 -1 -1 $-1 $143 $144 $2 $-1 $145 reversed single T -94.99999999999055 74.915715886660266 0 55.168568226680449 149.99999999999577 80 F #
loop $-1 -1 -1 $-1 $-1 $119 $78 T -199.99999999999051 149.99999999999577 0 -94.999999999990507 149.99999999999577 80 unknown #
plane-surface $-1 -1 -1 $-1 -94.999999999990507 149.99999999999577 80 0 -1 0 0 0 -1000 forward_v I I I I #
coedge $-1 -1 -1 $-1 $80 $100 $146 $147 forward $30 $-1 #
coedge $-1 -1 -1 $-1 $148 $85 $80 $115 reversed $111 $-1 #
edge $-1 -1 -1 $-1 $149 0 $116 0.10499999999999998 $80 $150 forward @7 unknown T -199.99999999999051 149.99999999999577 80 -94.999999999990507 149.99999999999577 80 #
vertex $-1 -1 -1 $-1 $115 $151 #
straight-curve $-1 -1 -1 $-1 -199.99999999999048 149.99999999999577 80 -1.8503717077086501e-12 -1000 0 F 0 F 0.26199999999999096 #
straight-curve $-1 -1 -1 $-1 -199.99999999999099 -111.9999999999952 80 0 0 -1000 F 0 F 0.080000000000000002 #
coedge $-1 -1 -1 $-1 $85 $148 $87 $122 forward $111 $-1 #
straight-curve $-1 -1 -1 $-1 -199.99999999999048 149.99999999999577 80 0 0 -1000 F 0 F 0.080000000000000002 #
coedge $-1 -1 -1 $-1 $92 $87 $152 $153 reversed $12 $-1 #
edge $-1 -1 -1 $-1 $154 0 $88 0.10499999999999998 $119 $155 forward @7 unknown T -199.99999999999051 149.99999999999577 0 -94.999999999990507 149.99999999999577 0 #
point $-1 -1 -1 $-1 -199.99999999999048 149.99999999999577 0 #
point $-1 -1 -1 $-1 -199.99999999999099 -111.9999999999952 0 #
coedge $-1 -1 -1 $-1 $156 $157 $92 $126 forward $158 $-1 #
edge $-1 -1 -1 $-1 $130 0 $159 0.14483143177331059 $125 $160 forward @7 unknown T 55.168568226680399 149.99999999999559 0 199.99999999999099 149.99999999999577 0 #
coedge $-1 -1 -1 $-1 $101 $93 $157 $161 reversed $129 $-1 #
coedge $-1 -1 -1 $-1 $93 $101 $95 $132 forward $129 $-1 #
loop $-1 -1 -1 $-1 $-1 $101 $162 T 199.99999999999048 -99.999999999995396 0 199.99999999999105 149.99999999999559 80 unknown #
vertex $-1 -1 -1 $-1 $94 $163 #
straight-curve $-1 -1 -1 $-1 199.99999999999048 -149.9999999999952 0 1.8503717077086501e-12 1000 0 F 0.049999999999999795 F 0.29999999999999077 #
edge $-1 -1 -1 $-1 $103 0 $96 0.080000000000000002 $128 $164 forward @7 unknown T 199.99999999999048 -99.999999999995396 0 199.99999999999048 -99.999999999995396 80 #
point $-1 -1 -1 $-1 199.99999999999048 -99.999999999995396 0 #
coedge $-1 -1 -1 $-1 $157 $156 $100 $135 reversed $158 $-1 #
edge $-1 -1 -1 $-1 $136 0 $165 0.14483143177331059 $100 $166 forward @7 unknown T 55.168568226680399 149.99999999999559 80 199.99999999999099 149.99999999999577 80 #
vertex $-1 -1 -1 $-1 $102 $167 #
straight-curve $-1 -1 -1 $-1 199.99999999999048 -149.9999999999952 80 1.8503717077086501e-12 1000 0 F 0.049999999999999795 F 0.29999999999999077 #
point $-1 -1 -1 $-1 199.99999999999048 -99.999999999995396 80 #
point $-1 -1 -1 $-1 -199.99999999999099 -111.9999999999952 80 #
rgb_color-st-attrib $-1 -1 $-1 $109 $78 2 1 2 1 1 1 1 1 1 1 1 1 1 1 0 1 1 1 0.60000002384185791 0.60000002384185791 0.66666668653488159 #
rh_material-rh_entity $-1 -1 4 4 @5 plain @5 color -4 1 1 1 @5 phong @14 ambient factor -2 1 @14 diffuse factor -2 0.75 @15 specular factor -2 0.5 @8 exponent -2 10 @14 specular color -4 1 1 1 @4 none @5 plain @5 color -4 0 0 0 #
render-rbase-attrib $-1 -1 $168 $-1 $110 1 1 1 1 1 1 1 1 1 1 1 1 0 1 0 1 1 1 $169 $-1 0 0 #
face $170 -1 -1 $-1 $162 $158 $2 $-1 $171 reversed single T 55.168568226680399 149.99999999999559 0 199.99999999999099 149.99999999999577 80 F #
loop $-1 -1 -1 $-1 $-1 $152 $110 T -94.99999999999055 74.915715886660266 0 55.168568226680449 149.99999999999577 80 unknown #
cone-surface $-1 -1 -1 $-1 -19.91571588665505 149.99999999999577 80 -0 -0 1 -75.084284113335499 0 0 1 I I -0 1 75.084284113335499 forward I I I I #
coedge $-1 -1 -1 $-1 $172 $173 $113 $147 reversed $144 $-1 #
edge $-1 -1 -1 $-1 $165 1.224646799147352e-16 $149 3.1415926535897931 $113 $174 forward @7 unknown T -94.99999999999055 74.915715886660266 80 55.168568226680449 149.99999999999577 80 #
coedge $-1 -1 -1 $-1 $119 $114 $173 $175 forward $111 $-1 #
vertex $-1 -1 -1 $-1 $147 $176 #
straight-curve $-1 -1 -1 $-1 -94.999999999990507 149.99999999999577 80 -1000 0 0 F 0 F 0.10499999999999998 #
point $-1 -1 -1 $-1 -199.99999999999048 149.99999999999577 80 #
coedge $-1 -1 -1 $-1 $173 $172 $121 $153 forward $144 $-1 #
edge $-1 -1 -1 $-1 $159 1.224646799147352e-16 $154 3.1415926535897931 $152 $177 forward @7 unknown T -94.99999999999055 74.915715886660266 0 55.168568226680449 149.99999999999577 0 #
vertex $-1 -1 -1 $-1 $153 $178 #
straight-curve $-1 -1 -1 $-1 -94.999999999990507 149.99999999999577 0 -1000 0 0 F 0 F 0.10499999999999998 #
coedge $-1 -1 -1 $-1 $134 $125 $172 $179 reversed $158 $-1 #
coedge $-1 -1 -1 $-1 $125 $134 $127 $161 forward $158 $-1 #
loop $-1 -1 -1 $-1 $-1 $125 $143 T 55.168568226680399 149.99999999999559 0 199.99999999999099 149.99999999999577 80 unknown #
vertex $-1 -1 -1 $-1 $126 $180 #
straight-curve $-1 -1 -1 $-1 199.99999999999099 149.99999999999577 0 -1000 0 0 F 0 F 0.14483143177331059 #
edge $-1 -1 -1 $-1 $136 0 $130 0.080000000000000002 $157 $181 forward @7 unknown T 199.99999999999099 149.99999999999559 0 199.99999999999099 149.99999999999559 80 #
face $182 -1 -1 $-1 $-1 $129 $2 $-1 $183 reversed single T 199.99999999999048 -99.999999999995396 0 199.99999999999105 149.99999999999559 80 F #
point $-1 -1 -1 $-1 199.99999999999099 149.99999999999559 0 #
straight-curve $-1 -1 -1 $-1 199.99999999999048 -99.999999999995396 80 0 0 -1000 F 0 F 0.080000000000000002 #
vertex $-1 -1 -1 $-1 $135 $184 #
straight-curve $-1 -1 -1 $-1 199.99999999999099 149.99999999999577 80 -1000 0 0 F 0 F 0.14483143177331059 #
point $-1 -1 -1 $-1 199.99999999999099 149.99999999999559 80 #
rgb_color-st-attrib $-1 -1 $-1 $142 $110 2 1 2 1 1 1 1 1 1 1 1 1 1 1 0 1 1 1 0.60000002384185791 0.60000002384185791 0.66666668653488159 #
rh_material-rh_entity $-1 -1 4 4 @5 plain @5 color -4 1 1 1 @5 phong @14 ambient factor -2 1 @14 diffuse factor -2 0.75 @15 specular factor -2 0.5 @8 exponent -2 10 @14 specular color -4 1 1 1 @4 none @5 plain @5 color -4 0 0 0 #
render-rbase-attrib $-1 -1 $185 $-1 $143 1 1 1 1 1 1 1 1 1 1 1 1 0 1 0 1 1 1 $186 $-1 0 0 #
plane-surface $-1 -1 -1 $-1 199.99999999999099 149.99999999999577 80 0 -1 0 0 0 -1000 forward_v I I I I #
coedge $-1 -1 -1 $-1 $152 $146 $156 $179 forward $144 $-1 #
coedge $-1 -1 -1 $-1 $146 $152 $148 $175 reversed $144 $-1 #
ellipse-curve $-1 -1 -1 $-1 -19.91571588665505 149.99999999999577 80 0 0 -1 75.084284113335499 9.1951728205666681e-15 0 1 F 1.224646799147352e-16 F 3.1415926535897931 #
edge $-1 -1 -1 $-1 $149 0 $154 0.080000000000000002 $148 $187 forward @7 unknown T -94.999999999990507 149.99999999999577 0 -94.999999999990507 149.99999999999577 80 #
point $-1 -1 -1 $-1 -94.999999999990507 149.99999999999577 80 #
ellipse-curve $-1 -1 -1 $-1 -19.91571588665505 149.99999999999577 0 0 0 -1 75.084284113335499 9.1951728205666681e-15 0 1 F 1.224646799147352e-16 F 3.1415926535897931 #
point $-1 -1 -1 $-1 -94.999999999990507 149.99999999999577 0 #
edge $-1 -1 -1 $-1 $165 0 $159 0.080000000000000002 $172 $188 forward @7 unknown T 55.168568226680399 149.99999999999577 0 55.168568226680399 149.99999999999577 80 #
point $-1 -1 -1 $-1 55.168568226680399 149.99999999999577 0 #
straight-curve $-1 -1 -1 $-1 199.99999999999099 149.99999999999559 80 0 0 -1000 F 0 F 0.080000000000000002 #
render-rbase-attrib $-1 -1 $189 $-1 $162 1 1 1 1 1 1 1 1 1 1 1 1 0 1 0 1 1 1 $190 $-1 0 0 #
plane-surface $-1 -1 -1 $-1 199.99999999999048 -149.9999999999952 80 -1 1.85037170770865e-15 0 -1.8503717077086501e-12 -1000 0 forward_v I I I I #
point $-1 -1 -1 $-1 55.168568226680399 149.99999999999577 80 #
rgb_color-st-attrib $-1 -1 $-1 $170 $143 2 1 2 1 1 1 1 1 1 1 1 1 1 1 0 1 1 1 0.60000002384185791 0.60000002384185791 0.66666668653488159 #
rh_material-rh_entity $-1 -1 4 4 @5 plain @5 color -4 1 1 1 @5 phong @14 ambient factor -2 1 @14 diffuse factor -2 0.75 @15 specular factor -2 0.5 @8 exponent -2 10 @14 specular color -4 1 1 1 @4 none @5 plain @5 color -4 0 0 0 #
straight-curve $-1 -1 -1 $-1 -94.999999999990507 149.99999999999577 80 0 0 -1000 F 0 F 0.080000000000000002 #
straight-curve $-1 -1 -1 $-1 55.168568226680399 149.99999999999577 80 0 0 -1000 F 0 F 0.080000000000000002 #
rgb_color-st-attrib $-1 -1 $-1 $182 $162 2 1 2 1 1 1 1 1 1 1 1 1 1 1 0 1 1 1 0.60000002384185791 0.60000002384185791 0.66666668653488159 #
rh_material-rh_entity $-1 -1 4 4 @5 plain @5 color -4 1 1 1 @5 phong @14 ambient factor -2 1 @14 diffuse factor -2 0.75 @15 specular factor -2 0.5 @8 exponent -2 10 @14 specular color -4 1 1 1 @4 none @5 plain @5 color -4 0 0 0 #
End-of-ACIS-data 